<svg width="194" height="115" viewBox="0 0 194 115" fill="none" xmlns="http://www.w3.org/2000/svg">
<path d="M54.0509 53.6146L184.608 33.3419C189.006 32.6584 193 35.8795 193 40.112V86.7813C193 89.9837 190.673 92.7554 187.389 93.4671L92.2912 114.077C89.4513 114.695 86.5128 113.627 84.8168 111.389L49.3572 64.3924C46.2411 60.2536 48.7754 54.448 54.0608 53.6333L54.0509 53.6146Z" stroke="#2E2C3C" stroke-opacity="0.52" stroke-linecap="round" stroke-linejoin="round"/>
<path d="M33.6995 97.2264L61.2195 30.5865C62.1395 28.3565 63.9995 26.6465 66.2995 25.9165L142.66 1.63646C147.17 0.206455 151.949 2.87645 153.079 7.47645L174.1 92.7764C175.33 97.7864 171.679 102.676 166.529 102.906L41.6295 108.536C35.6495 108.806 31.4195 102.776 33.6995 97.2464V97.2264Z" stroke="url(#paint0_linear_259_1006)" stroke-linecap="round" stroke-linejoin="round"/>
<path d="M29.01 103.25V50.3475L172.32 14.5383C177.67 13.202 183 16.6815 183 21.4971V96.005C183 100.005 179.253 103.25 174.634 103.25H29H29.01Z" fill="url(#paint1_linear_259_1006)"/>
<path d="M45.82 114.277C71.1257 114.277 91.64 93.7624 91.64 68.4567C91.64 43.151 71.1257 22.6367 45.82 22.6367C20.5143 22.6367 0 43.151 0 68.4567C0 93.7624 20.5143 114.277 45.82 114.277Z" fill="url(#paint2_linear_259_1006)"/>
<path d="M37.6214 79.25V75.483L46.4233 67.3331C47.1719 66.6087 47.7997 65.9567 48.3068 65.3771C48.822 64.7976 49.2124 64.2301 49.478 63.6747C49.7436 63.1113 49.8764 62.5036 49.8764 61.8516C49.8764 61.1271 49.7114 60.5033 49.3814 59.9801C49.0514 59.4489 48.6006 59.0424 48.0291 58.7607C47.4576 58.4709 46.8097 58.326 46.0852 58.326C45.3286 58.326 44.6686 58.4789 44.1051 58.7848C43.5417 59.0907 43.107 59.5294 42.8011 60.1009C42.4953 60.6723 42.3423 61.3525 42.3423 62.1413H37.38C37.38 60.5234 37.7462 59.1188 38.4787 57.9276C39.2112 56.7363 40.2375 55.8146 41.5575 55.1626C42.8776 54.5107 44.3989 54.1847 46.1214 54.1847C47.8923 54.1847 49.4337 54.4986 50.7457 55.1264C52.0658 55.7462 53.0921 56.6075 53.8246 57.7102C54.5571 58.813 54.9233 60.0767 54.9233 61.5014C54.9233 62.4351 54.7382 63.3568 54.3679 64.2663C54.0057 65.1759 53.3577 66.1861 52.424 67.2969C51.4903 68.3996 50.1742 69.7237 48.4759 71.2692L44.8658 74.8068V74.9759H55.2493V79.25H37.6214ZM68.0687 79.5881C66.3623 79.5881 64.841 79.2741 63.5048 78.6463C62.1767 78.0185 61.1222 77.1532 60.3414 76.0504C59.5607 74.9477 59.1542 73.6839 59.122 72.2592H64.193C64.2493 73.2171 64.6518 73.9938 65.4004 74.5895C66.149 75.1851 67.0384 75.483 68.0687 75.483C68.8897 75.483 69.6142 75.3018 70.242 74.9396C70.8779 74.5694 71.3729 74.0582 71.7271 73.4062C72.0893 72.7462 72.2704 71.9896 72.2704 71.1364C72.2704 70.267 72.0853 69.5024 71.715 68.8423C71.3528 68.1823 70.8497 67.6671 70.2058 67.2969C69.5618 66.9266 68.8253 66.7375 67.9963 66.7294C67.2718 66.7294 66.5675 66.8783 65.8833 67.1761C65.2072 67.474 64.68 67.8804 64.3017 68.3956L59.6532 67.5625L60.8244 54.5227H75.9409V58.7969H65.1348L64.4949 64.9908H64.6397C65.0744 64.379 65.7304 63.8719 66.6078 63.4695C67.4851 63.067 68.4672 62.8658 69.5538 62.8658C71.0429 62.8658 72.371 63.2159 73.5382 63.9162C74.7053 64.6165 75.627 65.5784 76.3031 66.8018C76.9792 68.0173 77.3133 69.4179 77.3052 71.0036C77.3133 72.6697 76.9269 74.1508 76.1461 75.4467C75.3734 76.7346 74.2908 77.7488 72.8983 78.4893C71.5138 79.2218 69.9039 79.5881 68.0687 79.5881Z" fill="white"/>
<path d="M17.9724 74.2789C17.0442 73.3262 16.3144 72.1884 15.8277 70.9353H23.6938V68.4469H15.2131C15.1164 67.6471 15.1164 66.8379 15.2131 66.038H23.6938V63.5497H15.8277C16.499 61.8256 17.625 60.3286 19.0786 59.2283C20.5322 58.1278 22.2555 57.4677 24.0541 57.3221C25.8525 57.1765 27.6549 57.5513 29.2577 58.4042L30.6186 55.7052C28.4096 54.528 25.9122 54.0488 23.4397 54.327C20.9673 54.6055 18.6295 55.6292 16.7197 57.2697C14.8098 58.9103 13.4128 61.095 12.7038 63.5495H10V66.0378H12.2423C12.2071 66.436 12.1873 66.8375 12.1873 67.2422C12.1873 67.647 12.2069 68.0485 12.2423 68.4467H10V70.9351H12.7038C13.4058 73.3947 14.8 75.5849 16.7101 77.2293C18.6203 78.8738 20.9608 79.8987 23.4361 80.1746C25.9116 80.4506 28.4108 79.9651 30.6184 78.7797L29.2578 76.0807C27.4362 77.06 25.358 77.4135 23.3276 77.089C21.2969 76.7648 19.4201 75.7803 17.9724 74.2789Z" fill="white" stroke="white" stroke-width="0.8"/>
<defs>
<linearGradient id="paint0_linear_259_1006" x1="32.5695" y1="54.8865" x2="174.84" y2="54.8865" gradientUnits="userSpaceOnUse">
<stop/>
<stop offset="0.79" stop-color="#302D3E"/>
<stop offset="0.87" stop-color="#2F2C3D"/>
</linearGradient>
<linearGradient id="paint1_linear_259_1006" x1="29.01" y1="58.7554" x2="183.01" y2="58.7554" gradientUnits="userSpaceOnUse">
<stop stop-color="#FFDD0E" stop-opacity="0.88"/>
<stop offset="0.54" stop-color="#FFDD0E"/>
<stop offset="1" stop-color="#FBD90B"/>
</linearGradient>
<linearGradient id="paint2_linear_259_1006" x1="0" y1="68.4567" x2="91.65" y2="68.4567" gradientUnits="userSpaceOnUse">
<stop/>
<stop offset="0.79" stop-color="#302D3E"/>
<stop offset="0.87" stop-color="#2F2C3D"/>
</linearGradient>
</defs>
</svg>
