<svg width="188" height="188" viewBox="0 0 188 188" fill="none" xmlns="http://www.w3.org/2000/svg">
<g filter="url(#filter0_d_830_16136)">
<circle cx="94" cy="89" r="70" fill="#1CA753"/>
</g>
<mask id="mask0_830_16136" style="mask-type:alpha" maskUnits="userSpaceOnUse" x="24" y="19" width="140" height="140">
<circle cx="94" cy="89" r="70" fill="#C4C4C4"/>
</mask>
<g mask="url(#mask0_830_16136)">
<path d="M114.099 97.8057C114.099 97.8057 107.019 111.97 99.8264 121.747C96.9646 125.639 94.0849 128.834 91.6276 130.168C89.222 131.472 87.1854 133.496 85.5001 135.744C81.137 141.559 79.1219 148.839 79.1219 148.839L60.7305 121.015C60.7305 121.015 61.3583 93.8176 63.5665 89.2682C66.7848 82.6378 68.3392 69.2425 69.5756 66.5758C70.4934 64.5977 73.1127 54.3785 73.3634 53.6272C73.4728 53.304 74.3439 52.8078 75.4761 52.8085C76.3842 52.8085 77.9268 53.6863 78.3151 55.4907C80.2821 64.6088 77.915 70.6239 77.9453 70.8908C78.639 77.8991 76.5536 83.1015 78.0193 84.4792C78.0733 84.5294 78.1746 84.5058 78.3151 84.4141C80.8508 82.7872 96.5867 59.8449 98.5249 59.3494C100.567 58.8273 114.099 97.8057 114.099 97.8057Z" fill="#F9AF8A"/>
<path d="M84.6548 143.332C84.6548 143.332 84.4041 155.696 83.6867 172.349H37.3008C47.9008 149.737 57.1194 130.705 57.1194 130.705C57.1194 130.705 83.5337 131.512 84.6548 143.332Z" fill="#2F80ED"/>
<path d="M130.183 49.8682L124.488 58.2171L118.9 66.4108C118.559 66.822 118.165 66.9647 117.738 66.924C116.397 66.7968 114.738 64.8623 113.445 63.7915L113.314 63.6835C112.494 63.0019 111.978 62.0235 111.877 60.9622C111.777 59.9009 112.101 58.843 112.778 58.0197L121.32 47.694L123.853 44.6318C124.535 43.8124 125.514 43.2962 126.575 43.1959C127.636 43.0956 128.694 43.4193 129.517 44.0964L129.649 44.2043C130.468 44.8865 130.983 45.865 131.083 46.9262C131.183 47.9873 130.86 49.0449 130.183 49.8682Z" fill="#F9AF8A"/>
<path d="M124.483 58.2173L118.894 66.4109C118.553 66.8221 118.159 66.9648 117.732 66.9242L121.314 47.6971C121.322 47.8021 121.931 56.4299 124.483 58.2173Z" fill="#F79B6E"/>
<path d="M99.8265 121.747C96.9646 125.639 94.085 128.834 91.6277 130.168C89.2221 131.472 87.1855 133.496 85.5002 135.744C83.5619 134.841 81.3523 133.781 79.1929 132.731C76.5633 131.453 76.462 127.719 79.0377 126.335C79.0635 126.322 79.0879 126.308 79.1116 126.294C81.5253 124.913 83.9982 120.036 83.9982 120.036L99.8265 121.747Z" fill="#F79B6E"/>
<path d="M73.2362 54.0503L71.7461 60.0669C71.7461 60.0669 73.0491 60.5993 73.8855 60.186C74.7218 59.7726 75.4044 54.3742 73.2362 54.0503Z" fill="#F79B6E"/>
<path d="M116.09 42.6973H84.0468C80.882 42.6973 78.3164 45.2629 78.3164 48.4277V118.86C78.3164 122.025 80.882 124.59 84.0468 124.59H116.09C119.255 124.59 121.821 122.025 121.821 118.86V48.4277C121.821 45.2629 119.255 42.6973 116.09 42.6973Z" fill="#696969"/>
<path d="M119.683 48.9698V117.769C119.683 120.103 117.787 122.013 115.468 122.013H84.7034C82.3873 122.013 80.4883 120.103 80.4883 117.769V48.9698C80.4883 46.6359 82.3836 44.7265 84.7034 44.7265H115.471C117.787 44.7265 119.683 46.6389 119.683 48.9698Z" fill="white"/>
<path fill-rule="evenodd" clip-rule="evenodd" d="M84.1952 63.8C83.0906 63.8 82.1952 64.6954 82.1952 65.8V78.6C82.1952 78.8832 82.254 79.1527 82.3602 79.3969C82.1995 79.5743 82.1016 79.8097 82.1016 80.068V80.7832C82.1016 81.6523 83.1337 82.1077 83.7756 81.5219L84.5594 80.8067C84.6295 80.7427 84.6877 80.6731 84.7345 80.6H116.595C117.7 80.6 118.595 79.7045 118.595 78.6V65.8C118.595 64.6954 117.7 63.8 116.595 63.8H84.1952Z" fill="#F5F5F5"/>
<path opacity="0.8" d="M96.348 75.9381C95.3586 76.9181 94.1546 77.4081 92.736 77.4081C91.3173 77.4081 90.1133 76.9181 89.124 75.9381C88.144 74.9487 87.654 73.7401 87.654 72.3121C87.654 70.8841 88.144 69.6801 89.124 68.7001C90.1133 67.7107 91.3173 67.2161 92.736 67.2161C94.1546 67.2161 95.3586 67.7107 96.348 68.7001C97.3373 69.6801 97.832 70.8841 97.832 72.3121C97.832 73.7401 97.3373 74.9487 96.348 75.9381ZM90.482 74.6221C91.0886 75.2194 91.84 75.5181 92.736 75.5181C93.632 75.5181 94.3833 75.2194 94.99 74.6221C95.5966 74.0154 95.9 73.2454 95.9 72.3121C95.9 71.3787 95.5966 70.6087 94.99 70.0021C94.3833 69.3954 93.632 69.0921 92.736 69.0921C91.84 69.0921 91.0886 69.3954 90.482 70.0021C89.8753 70.6087 89.572 71.3787 89.572 72.3121C89.572 73.2454 89.8753 74.0154 90.482 74.6221ZM105.111 67.4121V69.2601H102.465V77.2121H100.533V69.2601H97.9013V67.4121H105.111ZM109.844 67.4121C110.787 67.4121 111.58 67.7294 112.224 68.3641C112.868 68.9987 113.19 69.7781 113.19 70.7021C113.19 71.6261 112.868 72.4054 112.224 73.0401C111.58 73.6747 110.787 73.9921 109.844 73.9921H108.122V77.2121H106.19V67.4121H109.844ZM109.844 72.1861C110.255 72.1861 110.595 72.0461 110.866 71.7661C111.137 71.4767 111.272 71.1221 111.272 70.7021C111.272 70.2727 111.137 69.9181 110.866 69.6381C110.595 69.3581 110.255 69.2181 109.844 69.2181H108.122V72.1861H109.844Z" fill="#131313"/>
<path d="M106.499 43.1774H93.6386C92.5869 43.1774 91.7344 44.0299 91.7344 45.0816V45.3818C91.7344 46.4335 92.5869 47.286 93.6386 47.286H106.499C107.55 47.286 108.403 46.4335 108.403 45.3818V45.0816C108.403 44.0299 107.55 43.1774 106.499 43.1774Z" fill="#252525"/>
<path d="M127.343 81.3955L126.494 81.7179L120.783 83.8883C120.651 83.9391 120.515 83.9821 120.378 84.017C119.451 84.2548 118.468 84.1434 117.618 83.7041C116.768 83.2647 116.108 82.5281 115.766 81.6343L115.682 81.4125C115.319 80.4479 115.352 79.3787 115.774 78.4385C116.196 77.4983 116.974 76.7633 117.936 76.3942L123.261 74.3717L123.647 74.2238L124.497 73.9006C125.462 73.5367 126.533 73.5702 127.474 73.9938C128.414 74.4174 129.149 75.1965 129.517 76.1605L129.601 76.3824C129.963 77.3468 129.928 78.415 129.505 79.3542C129.082 80.2933 128.305 81.027 127.343 81.3955Z" fill="#F9AF8A"/>
<path d="M122.705 81.5287C121.753 81.8903 120.027 82.5307 119.104 82.6638C118.843 82.7008 118.365 82.5588 117.913 82.0678C117.644 81.772 117.386 81.3534 117.195 80.7722C117.102 80.5039 117.036 80.2269 116.999 79.9454C116.963 79.6177 116.974 79.2866 117.031 78.9619C117.06 78.8103 117.125 78.6678 117.219 78.5458C117.314 78.4239 117.436 78.326 117.575 78.2601C117.575 78.2601 117.575 78.2601 117.58 78.2601C118.561 77.792 119.884 77.2203 121.044 76.9024C121.845 76.6805 122.657 77.0347 122.91 77.7365L123.03 78.0641L123.643 79.7428C123.897 80.4379 123.484 81.2351 122.705 81.5287Z" fill="#FFD3B6"/>
<path d="M122.704 81.5285C121.752 81.8901 120.026 82.5305 119.103 82.6636C118.842 82.7006 118.364 82.5586 117.912 82.0676C117.864 81.9552 117.82 81.8376 117.779 81.7111C117.685 81.4431 117.619 81.166 117.583 80.8844C117.547 80.5567 117.558 80.2256 117.614 79.9008C117.644 79.7494 117.709 79.607 117.803 79.4853C117.898 79.3635 118.02 79.2657 118.159 79.1998C118.159 79.1998 118.159 79.1998 118.164 79.1998C119.145 78.731 120.467 78.1601 121.628 77.8413C121.864 77.7704 122.112 77.7535 122.356 77.7919C122.599 77.8304 122.83 77.9231 123.033 78.0632L123.646 79.7419C123.896 80.4377 123.483 81.2349 122.704 81.5285Z" fill="#F79B6E"/>
<path d="M124.753 89.4273L120.347 90.626C119.702 90.7997 119.014 90.711 118.434 90.3793C117.854 90.0476 117.429 89.4998 117.252 88.8557L117.116 88.3573C116.942 87.7114 117.032 87.0231 117.364 86.443C117.697 85.8628 118.246 85.4378 118.891 85.261L123.295 84.0622C123.941 83.8887 124.629 83.9781 125.209 84.3107C125.789 84.6433 126.214 85.1921 126.391 85.837L126.526 86.3355C126.698 86.9805 126.609 87.6676 126.276 88.2469C125.944 88.8261 125.396 89.2504 124.753 89.4273Z" fill="#F9AF8A"/>
<path d="M122.37 89.2112C121.561 89.4271 120.099 89.808 119.332 89.8501C119.053 89.8657 118.495 89.6283 118.131 88.8969C117.94 88.4995 117.83 88.0682 117.807 87.6279C117.802 87.3732 117.835 87.1192 117.906 86.8744C117.943 86.7573 118.008 86.6507 118.094 86.5634C118.181 86.476 118.287 86.4103 118.403 86.3715H118.408C119.247 86.0757 120.374 85.7215 121.349 85.5507C122.022 85.4331 122.661 85.757 122.819 86.3124L122.933 86.7087L123.272 87.9001C123.429 88.4488 123.031 89.0352 122.37 89.2112Z" fill="#FFD3B6"/>
<path d="M122.37 89.2112C121.561 89.4272 120.099 89.808 119.332 89.8502C119.053 89.8657 118.495 89.6283 118.131 88.8969C118.079 88.6982 118.049 88.4944 118.042 88.2891C118.036 88.0344 118.069 87.7803 118.14 87.5355C118.178 87.4183 118.242 87.3116 118.329 87.2241C118.416 87.1366 118.522 87.0708 118.638 87.0319C119.478 86.7361 120.605 86.3812 121.58 86.2118C122.138 86.1142 122.672 86.3198 122.929 86.708L123.268 87.8994C123.429 88.4488 123.031 89.0352 122.37 89.2112Z" fill="#F79B6E"/>
<path d="M52.6035 140.085C52.6035 140.085 61.6691 148.768 67.7803 152.12L72.4074 148.838V153.679C72.4074 153.679 81.5032 155.289 84.3769 153.679V140.477L58.8205 127.664L52.6035 140.085Z" fill="#4493FD" fill-opacity="0.98"/>
<path d="M86.3082 152.629C82.7874 153.351 75.1994 150.585 75.1994 150.585L76.421 138.764L67.8428 148.583C63.4798 146.957 56.6542 142.722 52.5995 140.085C50.5806 138.772 49.248 137.856 49.248 137.856C54.9703 128.647 60.7259 120.034 60.7259 120.034C62.4156 123.414 66.4141 126.348 70.7491 128.696C77.9525 132.598 86.0834 134.877 86.0834 134.877C86.0856 141.904 86.3082 152.629 86.3082 152.629Z" fill="white"/>
<path d="M78.3157 102.989C78.3157 102.989 77.0585 91.9932 75.8938 89.8494C74.7291 87.7056 73.7492 83.4105 75.5366 80.2203C77.324 77.0301 77.9422 70.8945 77.9422 70.8945C78.6359 77.9027 76.5505 83.1051 78.0162 84.4828C78.0702 84.5331 78.1715 84.5094 78.312 84.4177L78.3157 102.989Z" fill="#F79B6E"/>
<path d="M127.204 72.9571L127.11 72.9896L121.336 74.4686C118.797 75.1216 116.171 73.7476 115.501 71.4167L115.158 70.2291C114.514 67.9906 115.897 65.6501 118.257 64.8914L120.164 64.4018L124.031 63.4087C126.57 62.7564 129.195 64.1304 129.865 66.4613L130.209 67.6556C130.844 69.8593 129.505 72.1658 127.204 72.9571Z" fill="#F9AF8A"/>
<path d="M124.561 71.3448L121.751 72.6093H121.733C121.622 72.6404 121.508 72.6651 121.394 72.6833C121.347 72.6906 121.299 72.6958 121.252 72.701C121.232 72.7028 121.212 72.7028 121.193 72.701C121.119 72.6985 121.048 72.6779 120.985 72.6411C120.921 72.6043 120.868 72.5524 120.83 72.49C120.791 72.4276 120.769 72.3567 120.765 72.2836C120.76 72.2104 120.774 72.1374 120.805 72.0709C121.08 71.4754 121.136 70.8019 120.964 70.1689L120.897 69.9242C120.897 69.9217 120.897 69.9192 120.897 69.9168L120.679 69.1196C120.514 68.5072 120.158 67.9634 119.663 67.5666C119.605 67.5201 119.546 67.4757 119.485 67.4343C118.93 67.0497 119.072 66.1771 119.721 65.9996L119.739 65.9945L122.817 65.5286C123.578 65.3223 124.311 65.9079 124.518 66.6689L124.765 67.5763L125.292 69.5108C125.499 70.2769 125.318 71.1384 124.561 71.3448Z" fill="#FFD3B6"/>
<path d="M124.563 71.3449L121.752 72.6095H121.735C121.669 72.622 121.463 72.6568 121.194 72.6982C121.121 72.6957 121.049 72.6752 120.986 72.6383C120.923 72.6015 120.87 72.5496 120.831 72.4872C120.793 72.4248 120.77 72.3539 120.766 72.2808C120.762 72.2077 120.776 72.1346 120.807 72.0682C121.082 71.4726 121.138 70.7991 120.966 70.1662L120.898 69.9214C120.899 69.919 120.899 69.9164 120.898 69.914L120.681 69.1198C120.515 68.5074 120.159 67.9635 119.664 67.5668C119.77 67.4124 119.927 67.3009 120.108 67.2525L120.126 67.2473L123.204 66.7822C123.845 66.6077 124.465 66.9959 124.77 67.5764L125.296 69.511C125.5 70.2771 125.32 71.1386 124.563 71.3449Z" fill="#F79B6E"/>
<path d="M91.7491 87.3112H113.114C113.935 87.3136 114.721 87.6405 115.301 88.2206C115.881 88.8008 116.209 89.587 116.211 90.4075V99.7836C116.209 100.537 115.909 101.259 115.376 101.792C114.843 102.325 114.121 102.626 113.367 102.628H112.818L113.847 106.976L107.384 102.628H91.5679C90.7486 102.624 89.9637 102.297 89.3843 101.718C88.8049 101.139 88.4779 100.354 88.4746 99.5344V90.5894C88.4771 89.7214 88.8228 88.8896 89.4363 88.2755C90.0497 87.6614 90.8811 87.3147 91.7491 87.3112Z" fill="#F7FAFF"/>
<path d="M91.1767 94.1148H113.458C113.604 94.1142 113.744 94.0559 113.847 93.9525C113.951 93.8492 114.009 93.7092 114.01 93.5631C114.009 93.417 113.951 93.277 113.847 93.1737C113.744 93.0703 113.604 93.012 113.458 93.0114H91.1767C91.0305 93.0118 90.8904 93.0701 90.787 93.1735C90.6836 93.2768 90.6254 93.4169 90.625 93.5631C90.6254 93.7093 90.6836 93.8494 90.787 93.9528C90.8904 94.0561 91.0305 94.1144 91.1767 94.1148Z" fill="#CBE1FD"/>
<path d="M91.1767 96.5838H113.458C113.604 96.5834 113.744 96.5252 113.848 96.4218C113.951 96.3184 114.009 96.1783 114.01 96.0321C114.009 95.886 113.951 95.746 113.847 95.6427C113.744 95.5394 113.604 95.4811 113.458 95.4805H91.1767C91.0305 95.4809 90.8904 95.5391 90.787 95.6425C90.6836 95.7459 90.6254 95.8859 90.625 96.0321C90.6252 96.1784 90.6834 96.3186 90.7868 96.422C90.8902 96.5254 91.0304 96.5836 91.1767 96.5838Z" fill="#CBE1FD"/>
<path d="M91.1767 99.0539H113.458C113.604 99.0533 113.744 98.995 113.847 98.8917C113.951 98.7883 114.009 98.6484 114.01 98.5022C114.009 98.356 113.951 98.2159 113.848 98.1126C113.744 98.0092 113.604 97.951 113.458 97.9506H91.1767C91.0304 97.9508 90.8902 98.0089 90.7868 98.1124C90.6834 98.2158 90.6252 98.356 90.625 98.5022C90.6254 98.6484 90.6836 98.7885 90.787 98.8919C90.8904 98.9953 91.0305 99.0535 91.1767 99.0539Z" fill="#CBE1FD"/>
<path d="M103.313 90.9364H112.77C112.945 90.9359 113.111 90.8664 113.234 90.7432C113.357 90.62 113.427 90.4531 113.427 90.279C113.427 90.105 113.357 89.9384 113.234 89.8153C113.111 89.6923 112.944 89.6229 112.77 89.6223H103.313C103.139 89.6229 102.972 89.6923 102.849 89.8153C102.726 89.9384 102.657 90.105 102.656 90.279C102.657 90.4531 102.726 90.62 102.849 90.7432C102.972 90.8664 103.139 90.9359 103.313 90.9364Z" fill="#CBE1FD"/>
<path d="M95.1849 90.9362H100.875C101.162 90.9362 101.395 90.7038 101.395 90.4171V90.142C101.395 89.8553 101.162 89.6229 100.875 89.6229H95.1849C94.8982 89.6229 94.6658 89.8553 94.6658 90.142V90.4171C94.6658 90.7038 94.8982 90.9362 95.1849 90.9362Z" fill="#CBE1FD"/>
<path d="M86.4037 49.0304L85.9652 49.3454L85.5215 49.0341C85.5711 48.9638 85.6368 48.9064 85.7131 48.8667C85.7894 48.827 85.8741 48.8061 85.9602 48.8057C86.0462 48.8053 86.1311 48.8255 86.2077 48.8646C86.2843 48.9037 86.3505 48.9606 86.4008 49.0304H86.4037Z" fill="white"/>
<path d="M85.9668 48.0386C85.7575 48.0386 85.5514 48.089 85.3658 48.1856C85.1801 48.2821 85.0205 48.422 84.9004 48.5933L85.1784 48.7885C85.2667 48.6621 85.384 48.5588 85.5206 48.4873C85.6571 48.4158 85.8089 48.3782 85.963 48.3776C86.1171 48.377 86.2691 48.4135 86.4062 48.484C86.5433 48.5545 86.6614 48.6569 86.7506 48.7826L87.0279 48.5836C86.9071 48.415 86.7479 48.2775 86.5633 48.1827C86.3787 48.0879 86.1742 48.0385 85.9668 48.0386Z" fill="white"/>
<path d="M85.9659 46.5812C85.5232 46.5811 85.087 46.6876 84.6941 46.8918C84.3013 47.0959 83.9634 47.3917 83.709 47.7541L83.9878 47.9493C84.2101 47.6331 84.505 47.3749 84.8476 47.1961C85.1903 47.0174 85.5708 46.9233 85.9573 46.9219C86.3438 46.9204 86.725 47.0116 87.069 47.1878C87.413 47.364 87.7098 47.62 87.9345 47.9345L88.2103 47.7356C87.9552 47.3783 87.6185 47.0871 87.2281 46.8863C86.8377 46.6855 86.405 46.5809 85.9659 46.5812Z" fill="white"/>
<path d="M85.9666 47.3783C85.6515 47.3782 85.3409 47.4537 85.0609 47.5983C84.781 47.7429 84.5397 47.9525 84.3574 48.2095L84.6355 48.4048C84.7862 48.1936 84.9849 48.0213 85.2153 47.9021C85.4457 47.7829 85.7012 47.7202 85.9606 47.7192C86.22 47.7182 86.4759 47.7789 86.7073 47.8963C86.9386 48.0137 87.1387 48.1844 87.291 48.3944L87.5669 48.197C87.3841 47.9434 87.1437 47.7369 86.8655 47.5946C86.5872 47.4522 86.2791 47.3781 85.9666 47.3783Z" fill="white"/>
<path d="M86.3083 152.629C82.7875 153.351 75.1995 150.585 75.1995 150.585L76.4212 138.764L67.843 148.584C63.4799 146.957 56.6543 142.722 52.5996 140.085C62.9911 138.952 70.7492 128.697 70.7492 128.697C77.9527 132.599 86.0835 134.878 86.0835 134.878C86.0857 141.904 86.3083 152.629 86.3083 152.629Z" fill="#F2F7FF"/>
<path d="M62.1485 141.891C62.1512 141.609 62.2374 141.334 62.3965 141.101C62.5555 140.867 62.7801 140.686 63.0419 140.581C63.3036 140.475 63.5909 140.45 63.8672 140.507C64.1435 140.565 64.3965 140.703 64.5943 140.905C64.792 141.106 64.9255 141.362 64.978 141.639C65.0305 141.916 64.9996 142.203 64.8891 142.463C64.7787 142.723 64.5937 142.944 64.3576 143.099C64.1214 143.253 63.8447 143.334 63.5624 143.332C63.375 143.33 63.1897 143.291 63.0171 143.218C62.8446 143.145 62.6882 143.038 62.5569 142.904C62.4256 142.771 62.3219 142.612 62.2518 142.438C62.1818 142.265 62.1467 142.079 62.1485 141.891Z" fill="#2F80ED"/>
</g>
<defs>
<filter id="filter0_d_830_16136" x="0" y="0" width="188" height="188" filterUnits="userSpaceOnUse" color-interpolation-filters="sRGB">
<feFlood flood-opacity="0" result="BackgroundImageFix"/>
<feColorMatrix in="SourceAlpha" type="matrix" values="0 0 0 0 0 0 0 0 0 0 0 0 0 0 0 0 0 0 127 0" result="hardAlpha"/>
<feOffset dy="5"/>
<feGaussianBlur stdDeviation="12"/>
<feComposite in2="hardAlpha" operator="out"/>
<feColorMatrix type="matrix" values="0 0 0 0 0.854167 0 0 0 0 0.854167 0 0 0 0 0.854167 0 0 0 0.1 0"/>
<feBlend mode="normal" in2="BackgroundImageFix" result="effect1_dropShadow_830_16136"/>
<feBlend mode="normal" in="SourceGraphic" in2="effect1_dropShadow_830_16136" result="shape"/>
</filter>
</defs>
</svg>
