<svg width="211" height="200" viewBox="0 0 211 200" fill="none" xmlns="http://www.w3.org/2000/svg">
<g clip-path="url(#clip0_864_16501)">
<path d="M183.009 175.859C151.611 204.852 112.55 204.793 72.8151 188.72C49.5612 179.318 24.9647 163 11.5954 141.97C-6.49848 113.913 -0.181249 89.7766 13.7644 59.5909C32.2715 19.5003 62.2381 -4.26611 106.318 0.636996C162.891 6.91728 198.608 48.2415 208.381 103.115C213.302 130.758 202.917 157.48 183.009 175.859Z" fill="#1CA753"/>
<path d="M125.143 120.53C125.143 120.53 110.463 117.562 108.01 117.798C105.557 118.033 97.0644 121.864 96.9662 122.566C96.8679 123.268 97.2923 123.827 98.78 123.89C100.268 123.953 105.137 123.192 104.843 123.793C104.548 124.394 90.5462 127.546 90.4635 130.392C90.3809 133.238 98.2327 138.325 104.76 138.507C111.287 138.689 123.897 130.753 124.992 130.628C134.28 129.567 125.143 120.53 125.143 120.53Z" fill="#ED975D"/>
<path d="M205.328 87.7691C199.593 94.9466 194.813 100.5 192.293 102.521C190.283 104.127 187.756 105.771 184.852 107.417C163.922 119.276 123.668 131.312 123.668 131.312L123.588 131.253C121.479 129.641 119.761 127.571 118.562 125.197C117.03 122.084 117.345 120.151 117.8 119.141C117.939 118.804 118.145 118.499 118.406 118.244C118.406 118.244 166.656 87.2914 170.502 84.066C172.692 82.2358 180.615 63.7157 187.068 48.0127C187.971 49.3271 188.845 50.6609 189.691 52.0142C196.462 62.7983 201.686 74.8497 205.328 87.7691Z" fill="#ED7D2B"/>
<path d="M205.659 142.587C205.361 143.453 205.043 144.313 204.703 145.169C203.136 149.178 201.251 153.055 199.067 156.763C197.772 158.97 196.373 161.116 194.872 163.202C191.482 167.917 187.625 172.275 183.361 176.211C183.384 175.886 183.408 175.563 183.431 175.24C183.466 174.742 183.502 174.244 183.536 173.753C183.614 172.663 183.689 171.592 183.759 170.541C183.79 170.133 183.817 169.729 183.846 169.328C184.031 166.728 184.206 164.263 184.369 161.95C184.416 161.278 184.463 160.634 184.507 159.992L184.547 159.425C184.577 159.048 184.601 158.676 184.626 158.303C184.65 157.931 184.675 157.631 184.697 157.314V157.216C184.722 156.884 184.744 156.556 184.766 156.231C184.807 155.684 184.845 155.149 184.88 154.627C184.903 154.3 184.925 153.981 184.95 153.663C184.982 153.169 185.016 152.689 185.05 152.221C185.05 152.108 185.066 151.996 185.075 151.882C185.09 151.658 185.106 151.433 185.122 151.209C185.122 151.099 185.137 150.985 185.144 150.884C185.145 150.87 185.145 150.857 185.144 150.843C185.175 150.424 185.202 150.013 185.231 149.616C185.232 149.596 185.232 149.575 185.231 149.554C185.251 149.264 185.271 148.979 185.291 148.704C185.291 148.609 185.305 148.52 185.309 148.43C185.323 148.27 185.334 148.113 185.343 147.959L185.37 147.584C185.43 146.719 185.488 145.927 185.537 145.218C185.537 145.117 185.55 145.016 185.557 144.92C185.564 144.823 185.573 144.72 185.577 144.621C185.591 144.435 185.604 144.254 185.615 144.081C185.705 142.827 185.767 141.914 185.805 141.378C185.805 141.324 185.805 141.273 185.805 141.223C185.805 141.21 185.805 141.194 185.805 141.178C185.805 141.163 185.805 141.084 185.805 141.046C185.819 140.896 185.823 140.822 185.823 140.822L205.659 142.587Z" fill="#6BB7BF"/>
<path d="M205.659 142.587C205.361 143.453 205.043 144.313 204.703 145.169C203.136 149.178 201.251 153.055 199.067 156.763C197.772 158.97 196.373 161.116 194.872 163.202C191.482 167.917 187.625 172.275 183.361 176.211C183.384 175.886 183.408 175.563 183.431 175.24C183.466 174.742 183.502 174.244 183.536 173.753C183.614 172.663 183.689 171.592 183.759 170.541C183.79 170.133 183.817 169.729 183.846 169.328C184.031 166.728 184.206 164.263 184.369 161.95C184.416 161.278 184.463 160.634 184.507 159.992L184.547 159.425C184.577 159.048 184.601 158.676 184.626 158.303C184.65 157.931 184.675 157.631 184.697 157.314V157.216C184.722 156.884 184.744 156.556 184.766 156.231C184.807 155.684 184.845 155.149 184.88 154.627C184.903 154.3 184.925 153.981 184.95 153.663C184.982 153.169 185.016 152.689 185.05 152.221C185.05 152.108 185.066 151.996 185.075 151.882C185.09 151.658 185.106 151.433 185.122 151.209C185.122 151.099 185.137 150.985 185.144 150.884C185.145 150.87 185.145 150.857 185.144 150.843C185.175 150.424 185.202 150.013 185.231 149.616C185.232 149.596 185.232 149.575 185.231 149.554C185.251 149.264 185.271 148.979 185.291 148.704C185.291 148.609 185.305 148.52 185.309 148.43C185.323 148.27 185.334 148.113 185.343 147.959L185.37 147.584C185.43 146.719 185.488 145.927 185.537 145.218C185.537 145.117 185.55 145.016 185.557 144.92C185.564 144.823 185.573 144.72 185.577 144.621C185.591 144.435 185.604 144.254 185.615 144.081C185.705 142.827 185.767 141.914 185.805 141.378C185.805 141.324 185.805 141.273 185.805 141.223C185.805 141.21 185.805 141.194 185.805 141.178C185.805 141.163 185.805 141.084 185.805 141.046C185.819 140.896 185.823 140.822 185.823 140.822L205.659 142.587Z" fill="#599DAD"/>
<path d="M208.844 103.131C211.217 116.337 210.119 129.937 205.658 142.587C205.361 143.453 205.042 144.313 204.702 145.169C203.135 149.178 201.25 153.055 199.066 156.763C197.771 158.97 196.372 161.116 194.871 163.202C190.569 162.579 187.071 162.081 184.913 162.013C184.731 162.007 184.55 161.983 184.372 161.939C183.893 161.823 183.453 161.584 183.095 161.244C182.668 160.872 183.072 140.921 184.381 115.79C184.419 114.821 184.457 113.756 184.582 112.794V112.437C184.666 110.779 184.753 109.105 184.844 107.415C184.9 106.44 184.953 105.462 185.014 104.479C185.418 97.7772 185.907 90.9205 186.463 84.084C186.517 83.429 186.569 82.7748 186.62 82.1214C187.48 71.5997 188.489 61.2619 189.682 52.003C196.453 62.7961 201.678 74.8475 205.319 87.7669C206.737 92.7657 207.912 97.8871 208.844 103.131Z" fill="#F99746"/>
<path d="M28.7184 140.257C28.4794 133.22 28.1242 124.843 27.6529 115.793C27.6149 114.824 27.5724 113.758 27.4518 112.796L27.4362 112.439C27.3982 111.639 27.3602 110.831 27.3178 110.022C27.2954 109.564 27.2716 109.106 27.2463 108.647C27.1748 107.266 27.0959 105.878 27.0095 104.481C26.6052 97.7795 26.1004 90.9227 25.562 84.0862C25.5039 83.4313 25.4526 82.7763 25.4012 82.1236C24.6059 72.3757 23.6811 62.7826 22.6 54.0665L22.5799 53.9207C22.4459 52.8261 22.3029 51.7405 22.1622 50.6729C21.8807 48.5264 21.5858 46.4382 21.2686 44.4262C20.8502 45.1126 20.4391 45.8049 20.0356 46.5032C17.6424 50.6108 15.4086 54.9151 13.3341 59.4159C9.10555 68.5672 5.51581 78.4698 2.52251 88.8951L2.46442 89.0947C1.51327 92.394 0.828258 95.7649 0.416025 99.1746C0.357946 99.6456 0.306566 100.119 0.259656 100.59C-1.18115 115.586 3.07426 129.62 11.1562 142.159C11.4317 142.591 11.7146 143.022 12.005 143.453C12.5746 144.303 13.1644 145.151 13.772 145.987C14.1979 146.585 14.635 147.175 15.0832 147.755C15.1748 147.878 15.2709 148.002 15.3669 148.125C18.5279 152.211 21.9912 156.052 25.7273 159.616C26.3438 160.206 26.9678 160.791 27.5992 161.37C27.7534 161.513 27.9142 161.657 28.0706 161.8C28.3829 161.664 28.6705 161.477 28.9217 161.246C29.2121 161.006 29.1473 152.757 28.7184 140.257Z" fill="#2A4E96"/>
<path d="M28.7181 140.257C17.4664 128.416 8.08662 113.882 0.433594 99.1723C0.845826 95.7626 1.53084 92.3918 2.48199 89.0925L2.54007 88.8929C5.54008 78.4676 9.1231 68.565 13.3517 59.4137C20.2609 69.3276 25.1015 78.4519 25.4009 82.1259C25.4523 82.7786 25.5036 83.4335 25.5617 84.0885C26.1001 90.925 26.6049 97.7705 27.0092 104.484C27.0941 105.882 27.173 107.27 27.246 108.649C27.2698 109.108 27.2936 109.566 27.3175 110.024C27.3599 110.833 27.3979 111.641 27.4359 112.442L27.4515 112.798C27.5721 113.761 27.6146 114.817 27.6525 115.795C28.1239 124.843 28.4791 133.22 28.7181 140.257Z" fill="#1E3D70"/>
<path d="M79.8233 121.413C79.8233 121.413 94.7898 121.429 97.1554 122.147C99.521 122.865 107.082 128.315 107.038 129.022C106.993 129.728 106.47 130.19 105.001 129.955C103.531 129.719 98.9067 128.006 99.0764 128.656C99.2462 129.306 112.347 135.179 111.865 137.987C111.382 140.795 102.686 144.213 96.2551 143.094C89.824 141.975 79.0303 131.684 77.9804 131.343C69.0831 128.452 79.8233 121.413 79.8233 121.413Z" fill="#FFB27D"/>
<path d="M82.5351 126.548C81.4073 128.444 79.936 130.112 78.197 131.464C77.8186 131.766 77.4233 132.046 77.0131 132.303C77.0131 132.303 48.197 121.47 27.3086 110.022C20.4062 106.238 14.366 102.384 10.5216 98.8381C8.7859 97.2344 5.96685 93.6547 2.53125 88.8906C5.53125 78.4654 9.11429 68.5627 13.3429 59.4115C15.4174 54.9255 17.6512 50.6213 20.0443 46.4987C20.8775 48.9929 21.7353 51.5387 22.5975 54.062C27.1724 67.4659 31.8634 80.3046 33.5432 81.9173C37.1687 85.4006 83.1717 119.617 83.1717 119.617C83.1717 119.617 83.7659 120.196 83.929 121.44C84.072 122.573 83.8665 124.253 82.5351 126.548Z" fill="#2A4E96"/>
<path d="M139.202 20.2315H60.6348V91.7863H139.202V20.2315Z" fill="#DDEBFD"/>
<path d="M139.202 15.9384H60.6348V20.2292H139.202V15.9384Z" fill="#739AF0"/>
<path d="M63.2716 17.2259C63.1024 17.2259 62.9369 17.2763 62.7962 17.3707C62.6555 17.4651 62.5459 17.5992 62.4812 17.7562C62.4164 17.9132 62.3994 18.0859 62.4325 18.2525C62.4655 18.4192 62.547 18.5722 62.6666 18.6924C62.7863 18.8125 62.9387 18.8943 63.1047 18.9275C63.2706 18.9606 63.4426 18.9436 63.599 18.8786C63.7553 18.8136 63.8889 18.7035 63.9829 18.5622C64.0769 18.4209 64.1271 18.2548 64.1271 18.0849C64.1274 17.972 64.1055 17.8602 64.0626 17.7559C64.0197 17.6515 63.9567 17.5567 63.8772 17.4768C63.7977 17.397 63.7032 17.3337 63.5993 17.2907C63.4954 17.2476 63.384 17.2256 63.2716 17.2259Z" fill="#DDEBFD"/>
<path d="M66.6192 17.2259C66.45 17.2259 66.2846 17.2763 66.1439 17.3707C66.0032 17.4651 65.8936 17.5992 65.8288 17.7562C65.7641 17.9132 65.7471 18.0859 65.7801 18.2525C65.8131 18.4192 65.8946 18.5722 66.0143 18.6924C66.1339 18.8125 66.2864 18.8943 66.4523 18.9275C66.6183 18.9606 66.7903 18.9436 66.9466 18.8786C67.1029 18.8136 67.2366 18.7035 67.3306 18.5622C67.4246 18.4209 67.4748 18.2548 67.4748 18.0849C67.4751 17.972 67.4531 17.8602 67.4103 17.7559C67.3674 17.6515 67.3043 17.5567 67.2248 17.4768C67.1453 17.397 67.0509 17.3337 66.947 17.2907C66.843 17.2476 66.7317 17.2256 66.6192 17.2259Z" fill="#DDEBFD"/>
<path d="M69.9903 17.2259C69.8211 17.2259 69.6557 17.2763 69.515 17.3707C69.3743 17.4651 69.2647 17.5992 69.1999 17.7562C69.1351 17.9132 69.1182 18.0859 69.1512 18.2525C69.1842 18.4192 69.2657 18.5722 69.3854 18.6924C69.505 18.8125 69.6575 18.8943 69.8234 18.9275C69.9894 18.9606 70.1614 18.9436 70.3177 18.8786C70.4741 18.8136 70.6077 18.7035 70.7017 18.5622C70.7957 18.4209 70.8459 18.2548 70.8459 18.0849C70.8459 17.8571 70.7557 17.6386 70.5953 17.4775C70.4348 17.3164 70.2172 17.2259 69.9903 17.2259Z" fill="#DDEBFD"/>
<path d="M84.2276 29.5532H114.243C114.621 29.552 114.983 29.4009 115.25 29.1328C115.517 28.8647 115.667 28.5014 115.668 28.1222C115.667 27.743 115.517 27.3797 115.25 27.1116C114.983 26.8435 114.621 26.6924 114.243 26.6912H84.2276C83.8502 26.6924 83.4886 26.8436 83.222 27.1118C82.9553 27.3799 82.8053 27.7432 82.8047 28.1222C82.8053 28.5012 82.9553 28.8645 83.222 29.1326C83.4886 29.4008 83.8502 29.552 84.2276 29.5532Z" fill="#A8C3F7"/>
<path d="M77.3915 34.463H121.087C121.279 34.4707 121.47 34.4393 121.649 34.3709C121.829 34.3025 121.993 34.1984 122.131 34.0649C122.269 33.9313 122.379 33.7711 122.455 33.5938C122.53 33.4165 122.569 33.2258 122.569 33.0331C122.569 32.8405 122.53 32.6497 122.455 32.4725C122.379 32.2952 122.269 32.135 122.131 32.0014C121.993 31.8679 121.829 31.7638 121.649 31.6954C121.47 31.627 121.279 31.5956 121.087 31.6033H77.3937C77.2019 31.5956 77.0106 31.627 76.8312 31.6954C76.6518 31.7638 76.488 31.8679 76.3497 32.0014C76.2113 32.135 76.1013 32.2952 76.0261 32.4725C75.9509 32.6497 75.9121 32.8405 75.9121 33.0331C75.9121 33.2258 75.9509 33.4165 76.0261 33.5938C76.1013 33.7711 76.2113 33.9313 76.3497 34.0649C76.488 34.1984 76.6518 34.3025 76.8312 34.3709C77.0106 34.4393 77.2019 34.4707 77.3937 34.463H77.3915Z" fill="#A8C3F7"/>
<path d="M73.6953 47.3869H126.357C126.499 47.3935 126.64 47.3712 126.772 47.3215C126.904 47.2718 127.025 47.1956 127.128 47.0976C127.23 46.9996 127.311 46.8817 127.367 46.7513C127.422 46.6208 127.451 46.4803 127.451 46.3384C127.451 46.1964 127.422 46.056 127.367 45.9255C127.311 45.795 127.23 45.6772 127.128 45.5792C127.025 45.4811 126.904 45.405 126.772 45.3552C126.64 45.3055 126.499 45.2832 126.357 45.2898H73.6953C73.5541 45.2832 73.413 45.3055 73.2806 45.3552C73.1483 45.405 73.0273 45.4811 72.925 45.5792C72.8228 45.6772 72.7414 45.795 72.6858 45.9255C72.6302 46.056 72.6016 46.1964 72.6016 46.3384C72.6016 46.4803 72.6302 46.6208 72.6858 46.7513C72.7414 46.8817 72.8228 46.9996 72.925 47.0976C73.0273 47.1956 73.1483 47.2718 73.2806 47.3215C73.413 47.3712 73.5541 47.3935 73.6953 47.3869Z" fill="#A8C3F7"/>
<path d="M126.358 50.1301H73.6958C73.1184 50.1301 72.6504 50.5996 72.6504 51.1787C72.6504 51.7578 73.1184 52.2273 73.6958 52.2273H126.358C126.935 52.2273 127.403 51.7578 127.403 51.1787C127.403 50.5996 126.935 50.1301 126.358 50.1301Z" fill="#A8C3F7"/>
<path d="M126.357 54.9636H73.6953C73.5541 54.9571 73.413 54.9793 73.2806 55.0291C73.1483 55.0788 73.0273 55.155 72.925 55.253C72.8228 55.351 72.7414 55.4688 72.6858 55.5993C72.6302 55.7298 72.6016 55.8703 72.6016 56.0122C72.6016 56.1542 72.6302 56.2946 72.6858 56.4251C72.7414 56.5556 72.8228 56.6734 72.925 56.7714C73.0273 56.8695 73.1483 56.9456 73.2806 56.9954C73.413 57.0451 73.5541 57.0674 73.6953 57.0608H126.357C126.499 57.0674 126.64 57.0451 126.772 56.9954C126.904 56.9456 127.025 56.8695 127.128 56.7714C127.23 56.6734 127.311 56.5556 127.367 56.4251C127.422 56.2946 127.451 56.1542 127.451 56.0122C127.451 55.8703 127.422 55.7298 127.367 55.5993C127.311 55.4688 127.23 55.351 127.128 55.253C127.025 55.155 126.904 55.0788 126.772 55.0291C126.64 54.9793 126.499 54.9571 126.357 54.9636Z" fill="#A8C3F7"/>
<path d="M78.9832 72.5664H73.6958C73.4185 72.5664 73.1526 72.677 72.9566 72.8738C72.7605 73.0707 72.6504 73.3377 72.6504 73.6161C72.6504 73.8945 72.7605 74.1615 72.9566 74.3583C73.1526 74.5552 73.4185 74.6658 73.6958 74.6658H78.9832C79.2605 74.6658 79.5264 74.5552 79.7224 74.3583C79.9185 74.1615 80.0286 73.8945 80.0286 73.6161C80.0286 73.3377 79.9185 73.0707 79.7224 72.8738C79.5264 72.677 79.2605 72.5664 78.9832 72.5664Z" fill="#A8C3F7"/>
<path d="M87.8175 72.5664H82.5279C82.2506 72.5664 81.9847 72.677 81.7886 72.8738C81.5926 73.0707 81.4824 73.3377 81.4824 73.6161C81.4824 73.8945 81.5926 74.1615 81.7886 74.3583C81.9847 74.5552 82.2506 74.6658 82.5279 74.6658H87.8175C88.0948 74.6658 88.3607 74.5552 88.5567 74.3583C88.7528 74.1615 88.8629 73.8945 88.8629 73.6161C88.8629 73.3377 88.7528 73.0707 88.5567 72.8738C88.3607 72.677 88.0948 72.5664 87.8175 72.5664Z" fill="#A8C3F7"/>
<path d="M117.524 72.5664H112.237C111.96 72.5664 111.694 72.677 111.498 72.8738C111.302 73.0707 111.191 73.3377 111.191 73.6161C111.191 73.8945 111.302 74.1615 111.498 74.3583C111.694 74.5552 111.96 74.6658 112.237 74.6658H117.524C117.802 74.6658 118.067 74.5552 118.263 74.3583C118.46 74.1615 118.57 73.8945 118.57 73.6161C118.57 73.3377 118.46 73.0707 118.263 72.8738C118.067 72.677 117.802 72.5664 117.524 72.5664Z" fill="#A8C3F7"/>
<path d="M126.358 72.5664H121.071C120.794 72.5664 120.528 72.677 120.332 72.8738C120.136 73.0707 120.025 73.3377 120.025 73.6161C120.025 73.8945 120.136 74.1615 120.332 74.3583C120.528 74.5552 120.794 74.6658 121.071 74.6658H126.358C126.635 74.6658 126.901 74.5552 127.097 74.3583C127.294 74.1615 127.404 73.8945 127.404 73.6161C127.404 73.3377 127.294 73.0707 127.097 72.8738C126.901 72.677 126.635 72.5664 126.358 72.5664Z" fill="#A8C3F7"/>
<path d="M80.4481 75.942C79.3466 75.9416 78.2697 76.2692 77.3536 76.8833C76.4375 77.4975 75.7233 78.3706 75.3015 79.3923C74.8797 80.414 74.7691 81.5384 74.9837 82.6232C75.1983 83.7081 75.7285 84.7046 76.5072 85.4869C77.286 86.2691 78.2783 86.8019 79.3586 87.0178C80.4389 87.2338 81.5587 87.1232 82.5765 86.7C83.5942 86.2768 84.464 85.5601 85.076 84.6405C85.6881 83.7209 86.0147 82.6398 86.0147 81.5337C86.0106 80.0524 85.4229 78.6329 84.3799 77.5852C83.3369 76.5375 81.9234 75.9468 80.4481 75.942ZM80.4481 86.8451C79.4018 86.8455 78.3789 86.5344 77.5087 85.951C76.6385 85.3677 75.9602 84.5383 75.5595 83.5678C75.1588 82.5974 75.0537 81.5294 75.2575 80.4989C75.4614 79.4685 75.965 78.5219 76.7047 77.7789C77.4444 77.0358 78.3869 76.5297 79.413 76.3246C80.4392 76.1195 81.5029 76.2246 82.4696 76.6265C83.4363 77.0284 84.2626 77.7092 84.8439 78.5827C85.4252 79.4562 85.7355 80.4832 85.7355 81.5337C85.7343 82.9416 85.177 84.2916 84.1857 85.2873C83.1944 86.283 81.8502 86.8433 80.4481 86.8451Z" fill="#A8C3F7"/>
<path d="M80.4487 77.0276C79.5611 77.0276 78.6934 77.2919 77.9554 77.787C77.2174 78.2822 76.6422 78.9859 76.3026 79.8093C75.9629 80.6327 75.874 81.5387 76.0472 82.4128C76.2203 83.2869 76.6478 84.0898 77.2754 84.72C77.903 85.3502 78.7026 85.7794 79.5732 85.9532C80.4437 86.1271 81.346 86.0379 82.166 85.6968C82.9861 85.3558 83.6869 84.7782 84.1801 84.0372C84.6732 83.2962 84.9364 82.4249 84.9364 81.5337C84.9346 80.3392 84.4612 79.1941 83.62 78.3494C82.7788 77.5047 81.6383 77.0294 80.4487 77.0276ZM80.4487 85.7572C79.6167 85.7572 78.8035 85.5095 78.1118 85.0454C77.4201 84.5813 76.881 83.9217 76.5626 83.15C76.2442 82.3782 76.1609 81.529 76.3232 80.7098C76.4855 79.8905 76.8861 79.1379 77.4744 78.5473C78.0626 77.9566 78.8121 77.5544 79.6281 77.3914C80.444 77.2284 81.2897 77.3121 82.0583 77.6317C82.8269 77.9514 83.4839 78.4927 83.946 79.1873C84.4082 79.8818 84.6549 80.6984 84.6549 81.5337C84.6532 82.6533 84.2094 83.7265 83.421 84.5182C82.6326 85.3099 81.5637 85.7554 80.4487 85.7572Z" fill="#A8C3F7"/>
<path d="M78.9238 83.3774C78.3251 83.3281 78.0169 83.0455 78.0035 82.5386C77.9973 82.3499 78.0317 82.1622 78.1041 81.988C78.1766 81.8139 78.2855 81.6574 78.4234 81.5292C78.5396 82.1124 78.8479 82.6059 79.1874 82.7135C79.2829 82.742 79.385 82.7393 79.4789 82.7058C79.5728 82.6724 79.6538 82.6099 79.7101 82.5274C79.87 82.3202 80.0043 82.0942 80.11 81.8545C80.1692 81.9148 80.2491 81.9501 80.3334 81.9532C80.5411 81.9532 80.7466 81.7984 80.932 81.4754C80.9812 81.3853 81.0252 81.2925 81.0638 81.1973C81.0765 81.2118 81.0916 81.2239 81.1085 81.2332C81.1409 81.2513 81.1783 81.2582 81.215 81.253C81.2517 81.2477 81.2857 81.2305 81.3117 81.204C81.4551 81.0527 81.5721 80.8783 81.658 80.6881C81.6781 80.7325 81.7107 80.7699 81.7518 80.7958C81.7941 80.8179 81.8427 80.8244 81.8893 80.8142C81.9358 80.8039 81.9773 80.7776 82.0065 80.7397C82.0311 80.7213 82.0482 80.6946 82.0548 80.6646C82.0614 80.6345 82.0569 80.603 82.0422 80.576C82.0109 80.5199 81.9126 80.4795 81.7674 80.4549C81.9216 80.0982 82.0288 79.7237 81.973 79.5869C81.9627 79.559 81.9436 79.5353 81.9185 79.5194C81.8935 79.5036 81.8639 79.4966 81.8345 79.4994C81.7317 79.5106 81.658 79.6138 81.6111 79.8156C81.5698 80.017 81.5608 80.2237 81.5843 80.428C81.4785 80.428 81.3624 80.428 81.2358 80.428C81.2358 80.3536 81.2174 80.2803 81.1822 80.2149C81.1702 80.1886 81.1499 80.1671 81.1245 80.1537C81.099 80.1403 81.0698 80.1358 81.0415 80.1409C80.961 80.1588 80.932 80.2552 80.9208 80.336C80.9208 80.3674 80.9208 80.4033 80.9208 80.4459C80.5353 80.4768 80.1533 80.5421 79.7793 80.641C79.3464 80.7482 78.9363 80.9329 78.5686 81.1861C78.5686 81.0089 78.5686 80.7913 78.6982 80.7128C78.8277 80.6343 79.107 80.7352 79.1941 80.7868L79.2834 80.6343C79.2656 80.6343 78.8702 80.3966 78.6133 80.5625C78.4502 80.668 78.3899 80.8878 78.4033 81.2197C78.4033 81.2534 78.4033 81.2848 78.4033 81.3162C78.2229 81.4629 78.0781 81.6492 77.9802 81.8606C77.8822 82.0721 77.8337 82.3032 77.8382 82.5363C77.8538 83.1307 78.238 83.4896 78.9193 83.5457C79.4635 83.5645 80.0063 83.4793 80.5187 83.2945C81.8144 82.8728 83.0184 81.9734 83.2596 81.1569C82.9022 82.1864 80.3802 83.4986 78.9238 83.3774ZM81.8121 79.7506C81.8026 79.8127 81.7892 79.8741 81.7719 79.9345C81.7798 79.8721 81.7933 79.8106 81.8121 79.7506ZM81.2269 80.6119C81.3296 80.6119 81.4235 80.6119 81.5061 80.6119C81.4299 80.7872 81.3241 80.9481 81.1934 81.0874C81.1934 81.0874 81.1688 81.0717 81.142 80.9887C81.1817 80.866 81.2101 80.7398 81.2269 80.6119ZM80.2864 80.7106C80.5098 80.6724 80.7153 80.6455 80.9097 80.6298C80.9144 80.75 80.9309 80.8695 80.9588 80.9865C80.9126 81.1291 80.8519 81.2666 80.7779 81.3969C80.6349 81.6504 80.4741 81.7939 80.3311 81.7872C80.2987 81.7838 80.2677 81.7724 80.2408 81.754C80.2139 81.7356 80.192 81.7108 80.177 81.6818C80.3356 81.3094 80.4003 80.9326 80.2864 80.7106ZM80.1144 80.7644C80.1993 80.8788 80.1792 81.13 80.0921 81.4216C80.0442 81.2019 80.0518 80.9736 80.1144 80.7577V80.7644ZM79.098 81.0784C79.3627 80.9551 79.6388 80.8582 79.9223 80.7891C79.8768 81.011 79.8768 81.24 79.9223 81.462C79.9384 81.539 79.9624 81.6142 79.9938 81.6863C79.8884 81.9457 79.747 82.1888 79.5739 82.4085C79.5398 82.4639 79.4886 82.5067 79.4281 82.5301C79.3676 82.5536 79.3011 82.5566 79.2388 82.5386C78.9774 82.4578 78.6714 82.0048 78.5686 81.3879C78.7301 81.2644 78.9056 81.1605 79.0913 81.0784H79.098Z" fill="#A8C3F7"/>
<path d="M83.248 81.1636C83.2598 81.1291 83.2695 81.0939 83.2771 81.0582C83.2695 81.0939 83.2598 81.1291 83.248 81.1636Z" fill="#A8C3F7"/>
<path d="M119.145 76.0901C118.016 76.0901 116.913 76.426 115.975 77.0555C115.037 77.685 114.306 78.5796 113.874 79.6264C113.442 80.6731 113.329 81.8249 113.549 82.9362C113.769 84.0474 114.313 85.0681 115.11 85.8693C115.908 86.6704 116.925 87.216 118.032 87.437C119.138 87.6581 120.285 87.5446 121.328 87.111C122.37 86.6775 123.261 85.9432 123.888 85.0012C124.515 84.0591 124.85 82.9516 124.85 81.8186C124.849 80.2996 124.247 78.8433 123.177 77.7692C122.108 76.6952 120.657 76.0913 119.145 76.0901ZM119.145 87.2578C118.073 87.2578 117.026 86.9388 116.135 86.3411C115.244 85.7434 114.55 84.8939 114.14 83.9001C113.73 82.9062 113.623 81.8126 113.832 80.7575C114.041 79.7024 114.557 78.7332 115.314 77.9725C116.072 77.2118 117.037 76.6938 118.088 76.4839C119.139 76.2741 120.228 76.3818 121.218 76.7934C122.207 77.2051 123.053 77.9023 123.649 78.7967C124.244 79.6912 124.562 80.7428 124.562 81.8186C124.561 83.2614 123.99 84.645 122.975 85.6656C121.959 86.6862 120.582 87.2605 119.145 87.2622V87.2578Z" fill="#A8C3F7"/>
<path d="M119.146 77.2026C118.237 77.2026 117.348 77.4733 116.592 77.9805C115.836 78.4877 115.247 79.2086 114.899 80.0521C114.551 80.8956 114.46 81.8237 114.637 82.7191C114.815 83.6145 115.252 84.437 115.895 85.0826C116.538 85.7282 117.357 86.1678 118.249 86.3459C119.141 86.524 120.065 86.4326 120.905 86.0832C121.745 85.7338 122.463 85.1422 122.968 84.3831C123.474 83.624 123.743 82.7315 123.743 81.8186C123.742 80.5947 123.257 79.4213 122.395 78.5559C121.534 77.6905 120.365 77.2038 119.146 77.2026ZM119.146 86.1452C118.294 86.1452 117.461 85.8915 116.752 85.4161C116.043 84.9406 115.491 84.2649 115.165 83.4743C114.839 82.6837 114.754 81.8138 114.92 80.9745C115.086 80.1352 115.496 79.3643 116.099 78.7592C116.702 78.1541 117.469 77.742 118.305 77.5751C119.141 77.4081 120.008 77.4938 120.795 77.8213C121.582 78.1487 122.255 78.7033 122.729 79.4148C123.202 80.1263 123.455 80.9628 123.455 81.8186C123.453 82.9649 122.998 84.0636 122.19 84.8738C121.382 85.684 120.288 86.1396 119.146 86.1408V86.1452Z" fill="#A8C3F7"/>
<path d="M122.014 81.4305C122.026 81.3956 122.036 81.3596 122.043 81.3229C122.035 81.3593 122.025 81.3953 122.014 81.4305Z" fill="#A8C3F7"/>
<path d="M117.583 83.7072C116.971 83.6556 116.654 83.3662 116.64 82.8481C116.634 82.6546 116.67 82.462 116.745 82.2836C116.82 82.1052 116.932 81.945 117.074 81.8141C117.19 82.413 117.505 82.9176 117.853 83.0253C117.951 83.0554 118.056 83.0531 118.153 83.0187C118.249 82.9844 118.332 82.9199 118.39 82.8346C118.552 82.6271 118.69 82.4013 118.801 82.1618C118.86 82.2218 118.94 82.2577 119.024 82.2627C119.247 82.2627 119.448 82.1034 119.636 81.7715C119.687 81.6802 119.733 81.5858 119.772 81.4889C119.786 81.5027 119.801 81.5148 119.817 81.5248C119.851 81.5431 119.889 81.55 119.927 81.5443C119.965 81.5386 120 81.5208 120.027 81.4934C120.174 81.339 120.293 81.1608 120.38 80.9663C120.4 81.0118 120.434 81.0501 120.476 81.0762C120.52 81.0964 120.569 81.1018 120.616 81.0917C120.663 81.0816 120.706 81.0565 120.737 81.0201C120.763 81.0012 120.78 80.9737 120.787 80.9428C120.793 80.9118 120.788 80.8795 120.773 80.8519C120.742 80.7935 120.641 80.7509 120.492 80.7263C120.65 80.3607 120.76 79.9794 120.702 79.8291C120.691 79.8008 120.672 79.7768 120.646 79.7606C120.621 79.7444 120.591 79.737 120.561 79.7394C120.456 79.7394 120.38 79.856 120.337 80.0646C120.296 80.2705 120.287 80.4817 120.311 80.6904C120.206 80.6904 120.087 80.6904 119.953 80.6904C119.956 80.6121 119.938 80.5345 119.9 80.4661C119.887 80.439 119.866 80.4169 119.84 80.4031C119.814 80.3893 119.784 80.3846 119.754 80.3898C119.672 80.41 119.643 80.5065 119.632 80.5894C119.632 80.6208 119.632 80.659 119.632 80.7016C119.237 80.7337 118.846 80.8013 118.463 80.9035C118.019 81.0127 117.599 81.2011 117.221 81.4597C117.21 81.2803 117.221 81.056 117.353 80.9752C117.485 80.8945 117.773 80.9977 117.865 81.0515L117.954 80.8967C117.936 80.8967 117.532 80.6522 117.259 80.8227C117.092 80.9281 117.018 81.1547 117.036 81.4956C117.036 81.527 117.036 81.5606 117.036 81.5943C116.851 81.7447 116.703 81.9353 116.603 82.1518C116.503 82.3683 116.453 82.6049 116.457 82.8436C116.473 83.4515 116.866 83.8193 117.574 83.8776C118.132 83.8961 118.688 83.8086 119.214 83.6197C120.541 83.189 121.774 82.2739 122.02 81.4306C121.658 82.487 119.075 83.8328 117.583 83.7072ZM120.543 79.9928C120.533 80.0557 120.518 80.1178 120.501 80.179C120.509 80.1158 120.523 80.0535 120.543 79.9928ZM119.942 80.8743C120.047 80.8743 120.143 80.8743 120.228 80.8743C120.151 81.0541 120.043 81.2189 119.909 81.361C119.909 81.361 119.884 81.3453 119.857 81.2601C119.897 81.1342 119.925 81.0052 119.942 80.8743ZM118.979 80.9752C119.203 80.9349 119.426 80.9079 119.618 80.8922C119.623 81.0156 119.64 81.1381 119.67 81.2578C119.621 81.4041 119.559 81.5453 119.484 81.6795C119.337 81.9397 119.174 82.0833 119.037 82.0788C119.004 82.0749 118.973 82.0631 118.945 82.0444C118.917 82.0256 118.895 82.0005 118.879 81.9711C119.028 81.5876 119.095 81.2063 118.979 80.982V80.9752ZM118.803 81.0313C118.89 81.1479 118.87 81.4059 118.78 81.7042C118.733 81.4815 118.74 81.2503 118.803 81.0313ZM117.762 81.3521C118.033 81.2251 118.317 81.1259 118.608 81.056C118.562 81.2838 118.562 81.5189 118.608 81.7468C118.625 81.8278 118.651 81.9068 118.684 81.9823C118.574 82.2476 118.428 82.4966 118.251 82.7225C118.216 82.7784 118.163 82.8213 118.102 82.8452C118.04 82.869 117.973 82.8724 117.909 82.8548C117.641 82.7696 117.326 82.3076 117.239 81.675C117.4 81.5476 117.576 81.4393 117.762 81.3521Z" fill="#A8C3F7"/>
<path d="M146.105 147.685L139.268 156.949L138.597 157.859L138.269 158.308L137.427 159.45L136.969 160.071L136.127 161.213L135.233 162.413L134.405 163.534L134.391 163.55L133.612 164.604V164.617L133.495 164.774L133.482 164.792L133.337 164.99L132.495 166.037V166.127L131.708 167.195L130.692 168.574L129.926 169.612L129.084 170.75L127.676 172.654L127.538 172.842L127.06 173.49L125.943 174.989L124.473 176.886V176.978L123.714 178.01L123.633 178.115L122.574 179.549L121.587 180.894V180.908L119.145 184.219L115.511 189.153L109.415 197.391L108.658 198.419L108.211 199.024C108.434 199.058 108.676 199.092 108.908 199.121C109.717 199.228 110.525 199.329 111.332 199.415C111.555 199.442 111.778 199.466 112.002 199.489L112.426 199.531C112.768 199.565 113.11 199.596 113.449 199.623L113.88 199.661L114.084 199.679C114.307 199.699 114.53 199.715 114.754 199.731H114.883C115.379 199.769 115.88 199.8 116.376 199.83L117.046 199.863C117.222 199.874 117.399 199.881 117.575 199.89H117.676C117.97 199.904 118.265 199.917 118.558 199.926C118.781 199.926 119.005 199.942 119.228 199.944L119.997 199.964H120.667H121.384H122.436C122.574 199.964 122.711 199.964 122.847 199.964H123.115H123.381H123.756H124.042H124.312C126.072 199.916 127.819 199.82 129.551 199.675C131.548 199.51 133.522 199.286 135.475 199.002C137.588 198.688 139.673 198.302 141.729 197.845L141.832 197.822C141.833 197.831 141.833 197.84 141.832 197.849L143.771 197.369C144.039 197.304 144.309 197.239 144.577 197.169C147.124 196.52 149.621 195.768 152.07 194.913C152.481 194.769 152.887 194.624 153.294 194.464L153.597 194.352C154.36 194.074 155.115 193.784 155.863 193.482C156.066 193.403 156.269 193.32 156.472 193.237L156.595 193.188C156.836 193.092 157.073 192.993 157.308 192.894L157.839 192.67C158.049 192.583 158.255 192.493 158.463 192.403L158.863 192.226L159.557 191.914C161.831 190.89 164.049 189.774 166.21 188.568C166.433 188.442 166.656 188.314 166.88 188.184L178.779 172.059L146.105 147.685Z" fill="#A8D29F"/>
<path d="M128.113 180.903V181.857L128.806 180.919V180.906H128.102L128.113 180.903ZM126.811 182.162C126.567 182.261 126.331 182.378 126.105 182.512L124.586 184.568L123.422 186.139V188.209L124.801 186.345L128.113 181.859C127.665 181.884 127.224 181.986 126.811 182.162ZM121.2 189.153L121.028 189.377L120.358 190.275L117.366 194.328V196.398L119.482 193.531L121.175 191.239L122.069 190.037L122.728 189.14H121.202L121.2 189.153ZM146.502 154.876L139.381 164.521L139.318 164.606L138.887 165.189L138.333 165.938L138.045 166.324L136.725 168.119L136.175 168.769V168.859L135.829 169.354L135.346 170.005L133.381 172.667L133.338 172.723L133.24 172.856L132.614 173.701V173.791L130.747 176.231L130.021 177.205L129.903 177.366L127.892 180.085L127.294 180.894V180.908L126.119 182.503L124.6 184.559L123.436 186.13L122.594 187.271L121.213 189.14L121.041 189.364L120.371 190.261L117.38 194.314L116.54 195.451L115.117 197.378L113.471 199.607L113.902 199.646L114.105 199.664C114.328 199.684 114.552 199.699 114.775 199.715H114.905L116.634 197.371L117.366 196.375L119.482 193.509L121.175 191.217L122.069 190.014L122.728 189.117L123.42 188.177L124.798 186.313L128.111 181.828L128.804 180.89V180.877L129.88 179.508V179.448L130.72 178.306L131.39 177.398L132.59 175.776L133.43 174.634L134.379 173.349L134.743 172.858L134.882 172.67L135.329 172.077L136.171 170.936L137.064 169.731L137.958 168.525L138.047 168.408L138.887 167.269L139.533 166.394L139.834 165.992L140.609 164.943L140.676 164.853L140.846 164.629L144.09 160.232C144.439 159.758 144.878 159.358 145.381 159.054C145.885 158.75 146.443 158.549 147.024 158.462C147.605 158.376 148.197 158.405 148.767 158.548C149.336 158.691 149.873 158.946 150.344 159.297L166.923 171.633C167.444 172.021 167.883 172.507 168.216 173.065C168.549 173.623 168.769 174.241 168.864 174.885C168.959 175.528 168.927 176.184 168.77 176.815C168.612 177.446 168.333 178.039 167.947 178.562L157.946 192.114L157.356 192.912L157.888 192.688C158.098 192.6 158.303 192.511 158.511 192.421L158.911 192.244L159.606 191.932L172.6 174.332L146.502 154.876ZM121.2 189.153L121.028 189.377L120.358 190.275L117.366 194.328V196.398L119.482 193.531L121.175 191.239L122.069 190.037L122.728 189.14H121.202L121.2 189.153ZM126.811 182.162C126.567 182.261 126.331 182.378 126.105 182.512L124.586 184.568L123.422 186.139V188.209L124.801 186.345L128.113 181.859C127.665 181.884 127.224 181.986 126.811 182.162ZM128.113 180.903V181.857L128.806 180.919V180.906H128.102L128.113 180.903Z" fill="#82B378"/>
<path d="M141.892 197.84C141.893 197.831 141.893 197.822 141.892 197.813L141.789 197.836C139.727 198.284 137.642 198.67 135.535 198.993C133.582 199.282 131.608 199.506 129.611 199.666C127.88 199.815 126.134 199.912 124.372 199.955H124.102H123.816C123.8 199.699 123.794 199.444 123.798 199.19C123.804 198.588 123.865 197.987 123.979 197.396C124.265 195.904 124.883 194.497 125.786 193.278C125.794 193.269 125.8 193.26 125.806 193.251C126.456 192.372 127.245 191.606 128.141 190.983C128.931 190.431 129.797 189.996 130.712 189.691C130.991 189.597 131.27 189.516 131.554 189.449C132.213 189.289 132.887 189.197 133.564 189.175C133.846 189.175 134.125 189.175 134.404 189.175C135.034 189.205 135.66 189.293 136.274 189.44C136.556 189.507 136.835 189.586 137.112 189.68C137.434 189.788 137.751 189.912 138.061 190.052C138.347 190.18 138.626 190.322 138.901 190.479C139.208 190.652 139.506 190.842 139.795 191.046L139.955 191.161C140.179 191.326 140.402 191.501 140.599 191.683L140.637 191.717C140.795 191.858 140.947 191.999 141.083 192.15C141.382 192.45 141.663 192.767 141.926 193.098C142.04 193.244 142.149 193.392 142.249 193.547V193.56C142.571 194.017 142.852 194.501 143.089 195.007C143.199 195.245 143.299 195.485 143.389 195.727C143.581 196.244 143.73 196.776 143.835 197.317L141.892 197.84Z" fill="#82B378"/>
<path opacity="0.5" d="M133.335 164.99L132.492 166.048V166.127L131.706 167.194L130.69 168.574L129.924 169.612L129.081 170.75L127.674 172.654L127.536 172.842L127.058 173.49L125.941 174.989L124.471 176.9V176.978L123.711 178.01L123.631 178.115L122.572 179.549L121.585 180.894V180.908L119.143 184.219L115.509 189.153L109.415 197.391L108.658 198.419L108.211 199.024C108.434 199.058 108.676 199.092 108.908 199.121C109.717 199.228 110.525 199.329 111.332 199.415C111.555 199.442 111.778 199.466 112.002 199.489L112.426 199.531C112.768 199.565 113.11 199.596 113.449 199.623L113.88 199.661L114.084 199.679C114.307 199.699 114.53 199.715 114.754 199.731H114.883C115.379 199.769 115.88 199.8 116.376 199.83L117.046 199.863C117.222 199.874 117.399 199.881 117.575 199.89H117.676C117.851 199.062 118.052 198.227 118.279 197.385C118.621 196.106 119.016 194.817 119.454 193.522C119.789 192.529 120.153 191.533 120.533 190.541C120.685 190.149 120.839 189.759 120.995 189.366L121.089 189.142C121.553 187.987 122.043 186.841 122.545 185.71V185.634C122.822 185.015 123.104 184.474 123.39 183.864C123.859 182.858 124.333 181.871 124.813 180.903V180.89C125.463 179.578 126.115 178.308 126.754 177.093C126.841 176.931 126.924 176.83 127.008 176.691V176.615C127.292 176.079 127.574 175.552 127.851 175.045C128.262 174.282 128.666 173.549 129.055 172.847L129.16 172.656C129.405 172.208 129.644 171.86 129.879 171.447V171.373C130.444 170.364 130.967 169.44 131.429 168.617C131.708 168.119 131.965 167.661 132.195 167.242C132.285 167.08 132.372 166.925 132.45 166.777C132.821 166.104 133.107 165.548 133.292 165.144C133.352 165.01 133.402 164.893 133.437 164.79L133.335 164.99Z" fill="#82B378"/>
<path d="M143.388 190.963V195.626C143.388 195.673 143.388 195.718 143.388 195.765C143.366 196.074 143.262 196.371 143.087 196.627C142.882 196.931 142.59 197.166 142.249 197.299C142.168 197.331 142.085 197.356 142.001 197.376L141.921 197.394C141.869 197.394 141.818 197.409 141.764 197.414C141.711 197.417 141.657 197.417 141.604 197.414H115.111H109.414H99.3042C98.3555 197.208 97.4047 196.991 96.4516 196.763L95.7814 196.597C95.1485 196.448 94.5149 196.289 93.8805 196.122C93.6012 196.052 93.322 195.981 93.0428 195.898C92.5618 195.775 92.0808 195.648 91.5998 195.516C91.0815 195.376 90.5603 195.231 90.0361 195.083L89.3659 194.891C88.0778 194.521 86.7896 194.134 85.5014 193.729L85.3518 193.682C84.9631 193.56 84.5752 193.436 84.188 193.309C83.9646 193.24 83.7412 193.163 83.5178 193.085C79.8856 191.898 76.2691 190.577 72.6973 189.133H73.7293H93.0629H93.905H99.1076H141.706C141.786 189.136 141.865 189.145 141.943 189.16C142.179 189.202 142.403 189.292 142.603 189.423C142.804 189.555 142.976 189.725 143.109 189.925C143.306 190.234 143.403 190.596 143.388 190.963Z" fill="#FFB93E"/>
<path d="M107.073 197.391H99.3042C98.3555 197.185 97.4047 196.968 96.4516 196.741L95.7814 196.575C95.1485 196.425 94.5149 196.267 93.8805 196.099C93.6012 196.03 93.322 195.958 93.0428 195.875C92.5618 195.753 92.0808 195.625 91.5998 195.494C91.0815 195.353 90.5603 195.209 90.0361 195.061L89.3659 194.868C88.0778 194.499 86.7896 194.111 85.5014 193.706L85.3518 193.659C84.9631 193.538 84.5752 193.414 84.188 193.287C83.9646 193.217 83.7412 193.141 83.5178 193.063C79.8856 191.876 76.2691 190.555 72.6973 189.11H73.7293H93.0629H93.905H99.1076H102.235C102.543 190.483 103.021 191.811 103.658 193.065C104.389 194.51 105.373 195.811 106.562 196.907C106.638 196.979 106.72 197.048 106.801 197.131C106.816 197.147 106.834 197.158 106.852 197.174C106.91 197.261 106.993 197.331 107.073 197.391Z" fill="#FFA412"/>
<path d="M134.389 189.162H133.549V197.416H134.389V189.162Z" fill="#FFA412"/>
<path d="M131.543 189.16H130.703V197.414H131.543V189.16Z" fill="#FFA412"/>
<path d="M128.133 189.163L127.293 189.162L127.284 197.416L128.124 197.417L128.133 189.163Z" fill="#FFA412"/>
<path d="M122.902 189.155H122.062V197.409H122.902V189.155Z" fill="#FFA412"/>
<path d="M117.373 189.151H116.533V197.405H117.373V189.151Z" fill="#FFA412"/>
<path d="M108.899 189.144H108.059V197.398H108.899V189.144Z" fill="#FFA412"/>
<path d="M100.963 189.14H100.123V197.394H100.963V189.14Z" fill="#FFA412"/>
<path d="M93.8787 189.133V196.099C93.5995 196.03 93.3202 195.958 93.041 195.875V189.126L93.8787 189.133Z" fill="#FFA412"/>
<path d="M137.096 189.164H136.256V197.418H137.096V189.164Z" fill="#FFA412"/>
<path d="M138.885 189.167H138.045V197.421H138.885V189.167Z" fill="#FFA412"/>
<path d="M140.883 188.796H140.043V197.051H140.883V188.796Z" fill="#FFA412"/>
<path d="M141.916 189.196V197.391C141.812 197.411 141.707 197.421 141.601 197.421H141.076V189.166H141.601C141.707 189.167 141.812 189.177 141.916 189.196Z" fill="#FFA412"/>
<path d="M143.082 189.961V196.629C142.876 196.933 142.583 197.168 142.242 197.302V189.29C142.583 189.423 142.876 189.657 143.082 189.961Z" fill="#FFA412"/>
<path d="M149.436 182.716V187.377C149.436 187.734 149.328 188.084 149.127 188.379C148.923 188.685 148.63 188.92 148.287 189.052C148.082 189.131 147.864 189.172 147.644 189.173L73.705 189.122C73.2461 189.122 72.8046 188.946 72.4719 188.628C72.1393 188.311 71.9409 187.877 71.918 187.417C71.918 187.386 71.918 187.356 71.918 187.325V182.664V182.572C71.9394 182.149 72.1095 181.746 72.3982 181.437C72.6869 181.127 73.0755 180.93 73.495 180.881C73.5691 180.872 73.6437 180.867 73.7184 180.868L147.657 180.919C147.95 180.92 148.238 180.992 148.497 181.131C148.755 181.269 148.975 181.469 149.138 181.713C149.335 182.01 149.439 182.359 149.436 182.716Z" fill="#FFB93E"/>
<path d="M113.123 189.146L73.511 189.119C72.6599 189.119 71.9473 188.361 71.916 187.415C71.916 187.383 71.916 187.354 71.916 187.323V182.662V182.57C71.9562 181.695 72.5616 180.98 73.3255 180.879C73.3877 180.87 73.4504 180.865 73.5132 180.865L108.262 180.89C108.262 180.89 108.262 180.89 108.262 180.903C108.823 183.333 110.114 186.686 113.123 189.146Z" fill="#FFA412"/>
<path d="M140.436 180.912H139.596V189.167H140.436V180.912Z" fill="#FFA412"/>
<path d="M137.592 180.91H136.752V189.164H137.592V180.91Z" fill="#FFA412"/>
<path d="M134.182 180.908H133.342V189.162H134.182V180.908Z" fill="#FFA412"/>
<path d="M128.951 180.906H128.111V189.16H128.951V180.906Z" fill="#FFA412"/>
<path d="M123.424 180.901H122.584V189.155H123.424V180.901Z" fill="#FFA412"/>
<path d="M114.945 180.894H114.105V189.149H114.945V180.894Z" fill="#FFA412"/>
<path d="M107.01 180.89H106.17V189.144H107.01V180.89Z" fill="#FFA412"/>
<path d="M99.9239 180.886H99.084V189.14H99.9239V180.886Z" fill="#FFA412"/>
<path d="M143.145 180.915H142.305V189.169H143.145V180.915Z" fill="#FFA412"/>
<path d="M144.932 180.915H144.092V189.169H144.932V180.915Z" fill="#FFA412"/>
<path d="M146.662 180.917H145.822V189.171H146.662V180.917Z" fill="#FFA412"/>
<path d="M147.963 180.946V189.142C147.859 189.162 147.752 189.172 147.646 189.171H147.121V180.917H147.646C147.752 180.917 147.859 180.927 147.963 180.946Z" fill="#FFA412"/>
<path d="M149.129 181.711V188.379C148.924 188.685 148.631 188.92 148.289 189.052V181.04C148.63 181.174 148.922 181.408 149.129 181.711Z" fill="#FFA412"/>
<path d="M139.734 174.466V179.129C139.735 179.487 139.628 179.836 139.428 180.132C139.224 180.437 138.93 180.672 138.588 180.805C138.482 180.847 138.372 180.878 138.26 180.897L138.157 180.912H138.074H137.945L64.0058 180.861C63.5469 180.861 63.1054 180.685 62.7727 180.367C62.44 180.05 62.2417 179.616 62.2188 179.156C62.2188 179.125 62.2188 179.096 62.2188 179.064V174.403C62.2188 174.372 62.2188 174.341 62.2188 174.311C62.2417 173.851 62.44 173.418 62.7727 173.1C63.1054 172.783 63.5469 172.606 64.0058 172.607L137.945 172.658H138.039C138.226 172.67 138.411 172.71 138.586 172.777C138.64 172.8 138.693 172.822 138.742 172.847L138.834 172.898L138.926 172.954H138.939C138.967 172.972 138.994 172.992 139.019 173.013C139.083 173.06 139.143 173.112 139.198 173.17C139.216 173.186 139.232 173.203 139.247 173.221C139.248 173.225 139.248 173.229 139.247 173.233C139.259 173.242 139.27 173.253 139.278 173.266C139.297 173.287 139.314 173.309 139.33 173.331C139.354 173.363 139.379 173.394 139.401 173.428C139.618 173.73 139.734 174.094 139.734 174.466Z" fill="#FFB93E"/>
<path d="M103.422 180.899L63.8076 180.872C62.9587 180.872 62.2573 180.112 62.2148 179.167C62.2148 179.136 62.2148 179.107 62.2148 179.075V174.415C62.2148 174.383 62.2148 174.352 62.2148 174.323C62.2595 173.376 62.9609 172.618 63.812 172.618L98.5612 172.643C98.5746 172.705 98.588 172.768 98.6058 172.833C99.1799 175.242 100.478 178.486 103.404 180.888L103.422 180.899Z" fill="#FFA412"/>
<path d="M130.734 172.665H129.895V180.919H130.734V172.665Z" fill="#FFA412"/>
<path d="M127.891 172.663H127.051V180.917H127.891V172.663Z" fill="#FFA412"/>
<path d="M124.479 172.661H123.639V180.915H124.479V172.661Z" fill="#FFA412"/>
<path d="M119.25 172.658H118.41V180.912H119.25V172.658Z" fill="#FFA412"/>
<path d="M113.721 172.654H112.881V180.908H113.721V172.654Z" fill="#FFA412"/>
<path d="M105.244 172.647H104.404V180.901H105.244V172.647Z" fill="#FFA412"/>
<path d="M97.3067 172.643H96.4668V180.897H97.3067V172.643Z" fill="#FFA412"/>
<path d="M90.4727 172.317H89.6328V180.572H90.4727V172.317Z" fill="#FFA412"/>
<path d="M133.441 172.667H132.602V180.921H133.441V172.667Z" fill="#FFA412"/>
<path d="M135.231 172.667H134.391V180.921H135.231V172.667Z" fill="#FFA412"/>
<path d="M136.957 172.67H136.117V180.924H136.957V172.67Z" fill="#FFA412"/>
<path d="M138.262 172.699V180.894C138.158 180.914 138.052 180.924 137.947 180.924H137.422V172.67H137.947C138.052 172.67 138.158 172.68 138.262 172.699Z" fill="#FFA412"/>
<path d="M139.428 173.464V180.132C139.223 180.437 138.93 180.672 138.588 180.805V172.793C138.929 172.926 139.222 173.16 139.428 173.464Z" fill="#FFA412"/>
<path d="M145.175 166.407V171.068C145.175 171.427 145.068 171.777 144.867 172.073C144.733 172.272 144.56 172.442 144.36 172.573C144.159 172.704 143.934 172.793 143.698 172.836C143.594 172.854 143.489 172.864 143.383 172.865L69.4444 172.813C69.1674 172.813 68.8943 172.748 68.6469 172.622C68.3754 172.485 68.1428 172.281 67.9709 172.029C67.7991 171.778 67.6935 171.486 67.6641 171.182C67.6641 171.158 67.6641 171.133 67.6641 171.108C67.6641 171.084 67.6641 171.046 67.6641 171.017V166.356C67.6641 166.324 67.6641 166.293 67.6641 166.261C67.686 165.838 67.8564 165.437 68.145 165.127C68.4337 164.818 68.822 164.622 69.2411 164.573C69.3115 164.563 69.3824 164.559 69.4533 164.559L143.392 164.611C143.498 164.61 143.604 164.62 143.707 164.64C143.819 164.66 143.928 164.691 144.034 164.732C144.375 164.865 144.668 165.1 144.873 165.405C145.072 165.701 145.177 166.05 145.175 166.407Z" fill="#FFB93E"/>
<path d="M108.863 172.84L69.2506 172.813C69 172.813 68.7537 172.747 68.5358 172.622C68.2848 172.471 68.0739 172.262 67.9214 172.011C67.7689 171.76 67.6793 171.476 67.6602 171.182C67.6602 171.158 67.6602 171.133 67.6602 171.108C67.6602 171.084 67.6602 171.046 67.6602 171.017V166.356C67.6602 166.324 67.6602 166.293 67.6602 166.261C67.7004 165.389 68.3057 164.673 69.0697 164.573C69.1318 164.563 69.1945 164.559 69.2573 164.559L104.006 164.584C104.006 164.584 104.006 164.584 104.006 164.597C104.547 166.963 105.794 170.205 108.635 172.649C108.709 172.719 108.785 172.777 108.863 172.84Z" fill="#FFA412"/>
<path d="M136.176 164.606H135.336V172.86H136.176V164.606Z" fill="#FFA412"/>
<path d="M133.332 164.604H132.492V172.858H133.332V164.604Z" fill="#FFA412"/>
<path d="M129.922 164.602H129.082V172.856H129.922V164.602Z" fill="#FFA412"/>
<path d="M124.691 164.597H123.852V172.851H124.691V164.597Z" fill="#FFA412"/>
<path d="M119.162 164.595H118.322V172.849H119.162V164.595Z" fill="#FFA412"/>
<path d="M110.686 164.588H109.846V172.842H110.686V164.588Z" fill="#FFA412"/>
<path d="M102.748 164.584H101.908V172.838H102.748V164.584Z" fill="#FFA412"/>
<path d="M95.6602 164.577H94.8203V172.831H95.6602V164.577Z" fill="#FFA412"/>
<path d="M138.883 164.608H138.043V172.862H138.883V164.608Z" fill="#FFA412"/>
<path d="M140.672 164.608H139.832V172.862H140.672V164.608Z" fill="#FFA412"/>
<path d="M142.398 164.611H141.559V172.865H142.398V164.611Z" fill="#FFA412"/>
<path d="M143.703 164.644V172.84C143.599 172.859 143.494 172.869 143.388 172.869H142.863V164.615H143.388C143.494 164.615 143.599 164.624 143.703 164.644Z" fill="#FFA412"/>
<path d="M144.869 165.405V172.071C144.665 172.376 144.371 172.611 144.029 172.744V164.732C144.371 164.864 144.665 165.099 144.869 165.405Z" fill="#FFA412"/>
<path d="M139.746 158.164V162.825C139.746 163.188 139.636 163.542 139.431 163.841C139.226 164.139 138.935 164.369 138.598 164.498C138.492 164.541 138.382 164.571 138.27 164.59C138.236 164.598 138.201 164.603 138.167 164.606H138.109H138.051H137.955L64.0156 164.555C63.5567 164.555 63.1152 164.378 62.7825 164.061C62.4498 163.744 62.2515 163.31 62.2285 162.85C62.2285 162.818 62.2285 162.789 62.2285 162.758V158.097C62.2285 158.066 62.2285 158.034 62.2285 158.005C62.252 157.545 62.4506 157.112 62.7832 156.795C63.1159 156.478 63.5571 156.302 64.0156 156.303L137.955 156.352C138.06 156.353 138.166 156.362 138.27 156.381C138.505 156.424 138.73 156.513 138.93 156.645C139.13 156.776 139.302 156.947 139.436 157.146C139.64 157.446 139.749 157.801 139.746 158.164Z" fill="#FFB93E"/>
<path d="M103.439 164.595L63.8251 164.568C62.9763 164.568 62.2749 163.81 62.2324 162.863C62.2324 162.832 62.2324 162.803 62.2324 162.771V158.111C62.2324 158.079 62.2324 158.048 62.2324 158.019C62.2771 157.072 62.9785 156.314 63.8296 156.316L98.5765 156.339C99.1305 158.765 100.417 162.119 103.422 164.584L103.439 164.595Z" fill="#FFA412"/>
<path d="M130.748 156.365L129.908 156.364L129.9 164.618L130.74 164.619L130.748 156.365Z" fill="#FFA412"/>
<path d="M127.902 156.359H127.062V164.613H127.902V156.359Z" fill="#FFA412"/>
<path d="M124.49 156.357H123.65V164.611H124.49V156.357Z" fill="#FFA412"/>
<path d="M119.262 156.354H118.422V164.608H119.262V156.354Z" fill="#FFA412"/>
<path d="M113.732 156.35H112.893V164.604H113.732V156.35Z" fill="#FFA412"/>
<path d="M105.256 156.343H104.416V164.597H105.256V156.343Z" fill="#FFA412"/>
<path d="M97.3184 156.339H96.4785V164.593H97.3184V156.339Z" fill="#FFA412"/>
<path d="M90.2305 156.334H89.3906V164.588H90.2305V156.334Z" fill="#FFA412"/>
<path d="M133.453 156.363H132.613V164.617H133.453V156.363Z" fill="#FFA412"/>
<path d="M135.242 156.366H134.402V164.62H135.242V156.366Z" fill="#FFA412"/>
<path d="M136.969 156.366H136.129V164.62H136.969V156.366Z" fill="#FFA412"/>
<path d="M138.273 156.395V164.59C138.17 164.61 138.064 164.62 137.959 164.62H137.434V156.366H137.959C138.064 156.366 138.17 156.376 138.273 156.395Z" fill="#FFA412"/>
<path d="M139.44 157.16V163.828C139.235 164.133 138.942 164.368 138.6 164.501V156.489C138.941 156.622 139.233 156.856 139.44 157.16Z" fill="#FFA412"/>
<path d="M149.739 195.698C148.06 196.229 146.36 196.719 144.637 197.167C144.369 197.237 144.098 197.302 143.83 197.367C143.19 197.527 142.546 197.676 141.898 197.815L141.795 197.838C139.733 198.286 137.648 198.672 135.541 198.995C133.588 199.284 131.614 199.508 129.617 199.668C127.886 199.818 126.14 199.914 124.378 199.957H124.108H123.822H123.447H123.181H122.913C122.777 199.957 122.64 199.957 122.502 199.957H121.45H120.733H120.063L119.294 199.937C119.071 199.937 118.847 199.937 118.624 199.919C118.331 199.919 118.036 199.897 117.742 199.883H117.641C117.465 199.883 117.288 199.868 117.112 199.856L116.442 199.823C115.946 199.794 115.445 199.762 114.949 199.724H114.82C114.596 199.708 114.373 199.693 114.15 199.673L113.946 199.655L113.515 199.616C113.176 199.59 112.834 199.558 112.492 199.524L112.068 199.482C111.844 199.459 111.621 199.435 111.398 199.408C110.591 199.323 109.783 199.222 108.974 199.114C108.751 199.085 108.509 199.051 108.277 199.018L108.054 198.982C107.99 198.977 107.927 198.969 107.864 198.957L107.383 198.885C107.339 198.885 107.294 198.872 107.252 198.865H107.225H107.185C106.589 198.775 105.984 198.677 105.371 198.571L104.736 198.459L104.104 198.345L103.392 198.208C103.168 198.167 102.945 198.123 102.722 198.078C101.615 197.862 100.508 197.634 99.3998 197.391C98.4512 197.185 97.5003 196.968 96.5473 196.741L95.8771 196.575L95.551 196.494C95.1172 191.411 96.1615 186.311 98.5571 181.812C100.953 177.314 104.597 173.609 109.048 171.149C109.383 170.965 109.722 170.788 110.064 170.617C110.389 170.42 110.719 170.227 111.054 170.039C115.242 167.723 119.98 166.6 124.758 166.791C129.535 166.982 134.17 168.479 138.162 171.12C142.154 173.762 145.352 177.448 147.411 181.781C149.47 186.114 150.311 190.929 149.844 195.707L149.739 195.698Z" fill="#E2810E"/>
<path d="M154.801 177.046C152.543 172.913 149.218 169.468 145.176 167.071L144.87 166.892C144.593 166.732 144.313 166.578 144.03 166.443C143.92 166.383 143.806 166.326 143.701 166.273C143.424 166.129 143.145 165.992 142.861 165.862C142.709 165.793 142.558 165.721 142.415 165.656C142.135 165.53 141.856 165.414 141.575 165.301C141.293 165.189 140.985 165.077 140.681 164.961L140.614 164.938C140.357 164.846 140.1 164.759 139.839 164.676L139.66 164.62H139.584C139.521 164.584 139.455 164.556 139.386 164.534C139.214 164.481 139.039 164.431 138.863 164.382L138.599 164.308L138.271 164.223C137.992 164.151 137.71 164.084 137.431 164.023C137.279 163.989 137.127 163.956 136.973 163.927C136.694 163.87 136.412 163.817 136.131 163.772C135.849 163.727 135.541 163.675 135.237 163.635C134.934 163.595 134.688 163.568 134.411 163.541H134.397C134.083 163.509 133.768 163.485 133.45 163.462C133.171 163.447 132.89 163.433 132.608 163.422C131.987 163.404 131.365 163.404 130.741 163.422C130.464 163.422 130.182 163.449 129.901 163.469C129.234 163.517 128.564 163.592 127.89 163.693C127.611 163.734 127.332 163.781 127.053 163.832C126.186 163.993 125.328 164.197 124.482 164.445C124.31 164.494 124.14 164.546 123.968 164.602L123.928 164.615L123.849 164.64C122.224 165.159 120.653 165.835 119.158 166.658H119.141C118.864 166.813 118.587 166.97 118.319 167.132L118.171 167.221C115.781 168.675 113.638 170.503 111.825 172.638C111.769 172.701 111.715 172.766 111.664 172.829C109.675 175.218 108.124 177.943 107.082 180.877C107.082 180.881 107.082 180.886 107.082 180.89L107.013 181.085C106.674 182.063 106.392 183.061 106.171 184.073V184.149C105.805 185.785 105.6 187.452 105.559 189.128C105.493 191.761 105.824 194.388 106.542 196.92C106.582 197.073 106.629 197.225 106.676 197.369C106.825 197.865 106.991 198.36 107.174 198.852C107.217 198.852 107.261 198.867 107.306 198.872L107.786 198.944C107.849 198.955 107.912 198.963 107.976 198.968L108.199 199.004C108.423 199.038 108.664 199.071 108.896 199.101C109.705 199.208 110.514 199.309 111.32 199.394C111.543 199.421 111.767 199.446 111.99 199.468L112.415 199.511C112.756 199.545 113.098 199.576 113.438 199.603L113.869 199.641L114.072 199.659C114.295 199.679 114.519 199.695 114.742 199.711H114.872C115.368 199.749 115.868 199.78 116.364 199.809L117.034 199.843C117.211 199.854 117.387 199.861 117.564 199.87H117.664C117.959 199.883 118.254 199.897 118.546 199.906C118.77 199.906 118.993 199.921 119.217 199.924L119.985 199.944H120.655H121.372H122.424C122.563 199.944 122.699 199.944 122.835 199.944H123.103H123.369H123.744H124.03H124.301C126.061 199.896 127.807 199.8 129.539 199.655C131.536 199.49 133.511 199.266 135.463 198.982C137.576 198.668 139.661 198.282 141.718 197.824L141.82 197.802C141.821 197.811 141.821 197.82 141.82 197.829L143.759 197.349C144.027 197.284 144.298 197.219 144.566 197.149C147.112 196.5 149.61 195.748 152.058 194.893C152.469 194.749 152.876 194.603 153.282 194.444L153.586 194.332C154.348 194.054 155.103 193.764 155.851 193.462C156.054 193.383 156.258 193.3 156.461 193.217L156.584 193.168C156.825 193.071 157.062 192.973 157.296 192.874L157.828 192.65C157.85 192.459 157.87 192.269 157.886 192.078C158.373 186.87 157.298 181.636 154.801 177.046Z" fill="#E2810E"/>
<path d="M152.806 178.154C150.939 174.734 148.335 171.776 145.184 169.496C145.084 169.422 144.983 169.35 144.878 169.271C144.603 169.076 144.324 168.886 144.041 168.704L143.712 168.495C143.435 168.323 143.154 168.154 142.87 167.993C142.718 167.906 142.566 167.82 142.423 167.737C142.146 167.583 141.867 167.437 141.584 167.289C141.3 167.141 140.994 167.002 140.69 166.867C140.386 166.732 140.132 166.616 139.848 166.499L139.546 166.376C139.323 166.291 139.117 166.208 138.901 166.129C138.684 166.051 138.532 165.995 138.349 165.929L138.063 165.835C137.447 165.629 136.824 165.446 136.196 165.288C135.916 165.218 135.635 165.153 135.353 165.093C134.746 164.961 134.129 164.848 133.511 164.761L133.35 164.738C133.07 164.698 132.791 164.667 132.51 164.638C132.4 164.624 132.286 164.615 132.177 164.604H132.097L132.034 164.59H131.871C131.514 164.552 131.103 164.528 130.754 164.514C130.475 164.514 130.196 164.496 129.914 164.496C129.244 164.496 128.574 164.514 127.904 164.564C127.801 164.564 127.696 164.577 127.589 164.588H127.481L127.437 164.602H127.334C126.449 164.683 125.57 164.815 124.7 164.996C124.421 165.05 124.142 165.111 123.861 165.178C122.251 165.55 120.68 166.076 119.17 166.748C118.89 166.872 118.609 167.004 118.33 167.141L118.182 167.212C117.834 167.384 117.487 167.566 117.143 167.757C114.803 169.048 112.672 170.69 110.826 172.627L110.69 172.77C110.676 172.787 110.661 172.803 110.645 172.818C108.458 175.162 106.717 177.889 105.508 180.863C105.508 180.868 105.508 180.872 105.508 180.877C104.44 183.504 103.801 186.286 103.613 189.117C103.428 191.891 103.683 194.676 104.371 197.369C104.46 197.728 104.558 198.082 104.665 198.437L105.3 198.549C105.906 198.653 106.51 198.751 107.114 198.843H107.154H107.181C107.223 198.843 107.268 198.858 107.312 198.863L107.793 198.935C107.856 198.946 107.919 198.954 107.983 198.959L108.206 198.995C108.429 199.029 108.671 199.062 108.903 199.092C109.712 199.199 110.52 199.3 111.327 199.385C111.55 199.412 111.773 199.437 111.997 199.459L112.421 199.502C112.763 199.536 113.105 199.567 113.444 199.594L113.875 199.632L114.079 199.65C114.302 199.67 114.525 199.686 114.749 199.702H114.878C115.374 199.74 115.875 199.771 116.371 199.8L117.041 199.834C117.217 199.845 117.394 199.852 117.57 199.861H117.671C117.965 199.874 118.26 199.888 118.553 199.897C118.776 199.897 119 199.913 119.223 199.915L119.992 199.935H120.662H121.379H122.431C122.569 199.935 122.706 199.935 122.842 199.935H123.11H123.376H123.751H124.037H124.307C126.068 199.887 127.814 199.791 129.546 199.646C131.543 199.481 133.517 199.257 135.47 198.973C137.583 198.659 139.668 198.273 141.724 197.815L141.827 197.793C141.828 197.802 141.828 197.811 141.827 197.82L143.766 197.34C144.034 197.275 144.304 197.21 144.572 197.14C147.119 196.491 149.616 195.739 152.065 194.884C152.476 194.74 152.882 194.594 153.289 194.435L153.592 194.323C154.355 194.045 155.11 193.755 155.858 193.453C156.411 188.16 155.347 182.824 152.806 178.154Z" fill="#FFB93E"/>
<path d="M150.9 179.558C149.353 176.729 147.252 174.244 144.721 172.255C144.498 172.075 144.261 171.898 144.024 171.728C143.917 171.647 143.801 171.568 143.696 171.503C143.421 171.308 143.14 171.12 142.856 170.938C142.706 170.839 142.555 170.745 142.409 170.651C142.132 170.483 141.851 170.317 141.567 170.162C141.284 170.007 140.98 169.841 140.674 169.693C140.368 169.545 140.115 169.417 139.834 169.289C139.519 169.148 139.204 169.011 138.884 168.886C138.607 168.771 138.328 168.661 138.047 168.563L137.957 168.531C137.551 168.382 137.141 168.249 136.727 168.132C136.543 168.076 136.362 168.024 136.179 167.975C135.9 167.899 135.621 167.827 135.339 167.764C134.669 167.609 133.999 167.484 133.329 167.383C133.05 167.343 132.771 167.309 132.489 167.28C132.407 167.269 132.322 167.26 132.234 167.253C132.058 167.235 131.879 167.219 131.703 167.206C131.107 167.161 130.511 167.138 129.916 167.138C129.636 167.138 129.355 167.138 129.076 167.152C127.599 167.204 126.13 167.394 124.689 167.719C124.407 167.782 124.126 167.852 123.846 167.928C122.224 168.358 120.652 168.96 119.155 169.722C118.905 169.85 118.657 169.98 118.409 170.119L118.316 170.171C117.028 170.889 115.809 171.725 114.674 172.667C114.596 172.728 114.52 172.791 114.451 172.858C114.203 173.067 113.962 173.282 113.725 173.499C113.437 173.766 113.158 174.036 112.885 174.316C111.001 176.235 109.456 178.463 108.317 180.903C108.316 180.908 108.316 180.912 108.317 180.917C108.306 180.936 108.296 180.956 108.288 180.977C107.78 182.071 107.356 183.2 107.017 184.358V184.407C107.004 184.427 106.993 184.448 106.983 184.47C106.597 185.746 106.326 187.054 106.173 188.379V188.393V188.406V188.42V188.433C106.15 188.63 106.13 188.83 106.114 189.032C106.054 189.705 106.027 190.378 106.027 191.066C106.027 193.081 106.283 195.087 106.787 197.037L106.854 197.284C106.99 197.791 107.142 198.289 107.301 198.787L107.781 198.858C107.844 198.87 107.907 198.878 107.971 198.883L108.194 198.919C108.418 198.953 108.659 198.986 108.891 199.015C108.804 198.791 108.717 198.549 108.641 198.313C108.523 197.974 108.414 197.631 108.313 197.286C108.214 196.941 108.123 196.685 108.04 196.335V196.245C107.479 193.885 107.305 191.449 107.524 189.032C107.656 187.58 107.927 186.145 108.333 184.746C108.502 184.148 108.695 183.568 108.909 183.007C109.193 182.253 109.517 181.515 109.881 180.796C109.879 180.791 109.879 180.787 109.881 180.782C110.689 179.177 111.689 177.676 112.858 176.312C113.126 175.994 113.406 175.686 113.698 175.386C114.628 174.411 115.645 173.524 116.736 172.737C116.826 172.672 116.913 172.607 117.004 172.546H117.022C117.44 172.25 117.853 171.97 118.293 171.705C118.55 171.546 118.811 171.396 119.075 171.256L119.135 171.223C120.621 170.405 122.195 169.76 123.826 169.301C124.106 169.22 124.387 169.148 124.668 169.076C126.108 168.73 127.578 168.527 129.058 168.473C129.335 168.473 129.612 168.457 129.889 168.457C130.144 168.457 130.4 168.457 130.655 168.471C130.914 168.471 131.178 168.493 131.437 168.513C131.779 168.536 132.12 168.567 132.458 168.605C132.739 168.638 133.018 168.676 133.295 168.72C133.966 168.823 134.636 168.957 135.306 169.121C135.467 169.162 135.628 169.202 135.788 169.247L136.146 169.348C136.445 169.433 136.74 169.527 137.039 169.624C137.368 169.734 137.694 169.848 138.018 169.976C138.301 170.086 138.578 170.2 138.858 170.319C139.177 170.458 139.492 170.606 139.807 170.768C140.088 170.907 140.37 171.05 140.647 171.203C140.924 171.355 141.241 171.535 141.54 171.71C141.84 171.885 142.106 172.057 142.383 172.243C142.537 172.344 142.689 172.45 142.829 172.555C142.928 172.625 143.028 172.694 143.124 172.766C146.54 175.238 149.195 178.624 150.788 182.538C152.381 186.451 152.848 190.735 152.135 194.902C152.546 194.758 152.953 194.612 153.36 194.453L153.663 194.341C154.356 189.243 153.387 184.057 150.9 179.558Z" fill="#FFA412"/>
<path d="M129.264 199.363C128.754 198.811 128.358 198.163 128.098 197.456L123.791 199.213C123.791 199.466 123.791 199.722 123.809 199.978H124.095H124.366C126.126 199.93 127.872 199.833 129.604 199.688C129.485 199.586 129.372 199.478 129.264 199.363ZM129.264 199.363C128.754 198.811 128.358 198.163 128.098 197.456L123.791 199.213C123.791 199.466 123.791 199.722 123.809 199.978H124.095H124.366C126.126 199.93 127.872 199.833 129.604 199.688C129.485 199.586 129.372 199.478 129.264 199.363ZM129.264 199.363C128.754 198.811 128.358 198.163 128.098 197.456L123.791 199.213C123.791 199.466 123.791 199.722 123.809 199.978H124.095H124.366C126.126 199.93 127.872 199.833 129.604 199.688C129.485 199.586 129.372 199.478 129.264 199.363ZM129.264 199.363C128.754 198.811 128.358 198.163 128.098 197.456L123.791 199.213C123.791 199.466 123.791 199.722 123.809 199.978H124.095H124.366C126.126 199.93 127.872 199.833 129.604 199.688C129.485 199.586 129.372 199.478 129.264 199.363ZM129.264 199.363C128.754 198.811 128.358 198.163 128.098 197.456L123.791 199.213C123.791 199.466 123.791 199.722 123.809 199.978H124.095H124.366C126.126 199.93 127.872 199.833 129.604 199.688C129.485 199.586 129.372 199.478 129.264 199.363ZM129.264 199.363C128.754 198.811 128.358 198.163 128.098 197.456L123.791 199.213C123.791 199.466 123.791 199.722 123.809 199.978H124.095H124.366C126.126 199.93 127.872 199.833 129.604 199.688C129.485 199.586 129.372 199.478 129.264 199.363ZM141.912 194.682C141.814 194.258 141.682 193.843 141.517 193.442C141.386 193.117 141.237 192.8 141.07 192.493C140.935 192.238 140.786 191.991 140.623 191.753C140.612 191.735 140.599 191.719 140.585 191.701C140.35 191.369 140.08 191.063 139.781 190.788C139.507 190.537 139.215 190.308 138.905 190.102C138.635 189.927 138.355 189.769 138.066 189.629C137.809 189.505 137.544 189.397 137.275 189.306C137.223 189.288 137.17 189.267 137.116 189.254C137.063 189.241 136.951 189.198 136.864 189.173L136.77 189.149C135.931 188.908 135.069 188.758 134.199 188.7H134.094C133.853 188.684 133.609 188.673 133.359 188.662C132.394 188.624 131.362 188.619 130.27 188.648C129.799 188.663 129.366 188.663 128.969 188.648C128.668 188.648 128.386 188.624 128.13 188.599H128.083C127.557 188.561 127.041 188.447 126.548 188.26C126.157 188.111 125.806 187.872 125.523 187.563C125.244 187.243 125.022 186.877 124.868 186.482L124.819 186.352C124.683 185.986 124.6 185.603 124.573 185.214C124.56 184.999 124.571 184.783 124.607 184.571C124.638 184.383 124.69 184.2 124.761 184.023C124.925 183.627 125.175 183.271 125.491 182.983C125.684 182.802 125.897 182.645 126.126 182.514C126.352 182.38 126.588 182.263 126.832 182.164C127.245 181.989 127.684 181.888 128.132 181.863C128.415 181.85 128.698 181.874 128.974 181.937C129.224 181.994 129.467 182.08 129.698 182.193C130.591 182.628 131.313 183.537 131.864 184.918L133.359 184.311L134.201 183.967L136.772 182.92L137.219 182.743C137.083 182.404 136.935 182.07 136.772 181.774V181.684C136.62 181.397 136.457 181.191 136.287 180.924V180.91L136.14 180.686C135.936 180.384 135.712 180.095 135.47 179.822C135.398 179.742 135.329 179.665 135.246 179.598C134.985 179.322 134.704 179.065 134.407 178.829C134.108 178.591 133.792 178.377 133.459 178.189C133.341 178.12 133.218 178.055 133.093 177.994C132.968 177.934 132.778 177.846 132.62 177.77C132.231 177.613 131.831 177.489 131.422 177.398C131.199 177.348 130.975 177.31 130.752 177.279C130.578 177.254 130.401 177.236 130.223 177.223H130.031H129.912C129.239 177.201 128.565 177.249 127.902 177.366C127.625 177.416 127.343 177.476 127.06 177.55L126.988 177.568L126.807 177.12L125.958 175.016L125.476 173.822L124.491 174.224L123.651 174.565L122.514 175.027L123.649 177.84L123.729 178.037L124.006 178.723C123.883 178.786 123.765 178.851 123.649 178.916C123.284 179.121 122.93 179.346 122.59 179.589C122.127 179.915 121.691 180.278 121.287 180.675C121.205 180.758 121.124 180.843 121.046 180.926L121.033 180.939C120.435 181.567 119.942 182.288 119.572 183.072C119.395 183.451 119.253 183.845 119.15 184.25C119.022 184.749 118.952 185.262 118.942 185.777C118.93 186.768 119.122 187.751 119.505 188.664C119.579 188.839 119.652 189.012 119.728 189.175C119.912 189.567 120.128 189.942 120.374 190.297C120.439 190.391 120.506 190.485 120.575 190.573C120.761 190.818 120.967 191.048 121.189 191.261L121.263 191.331C121.517 191.563 121.788 191.776 122.074 191.968C122.342 192.15 122.622 192.313 122.914 192.455C123.19 192.59 123.475 192.707 123.767 192.805C124.431 193.028 125.114 193.185 125.809 193.276C126.177 193.327 126.559 193.365 126.955 193.386L127.301 193.401C127.576 193.415 127.855 193.424 128.141 193.428C128.954 193.442 129.809 193.428 130.712 193.388H130.788C131.054 193.372 131.31 193.363 131.552 193.359C131.993 193.351 132.434 193.366 132.874 193.403C133.099 193.423 133.323 193.455 133.544 193.5C133.832 193.553 134.114 193.634 134.386 193.742C134.794 193.9 135.159 194.15 135.456 194.471C135.764 194.824 136.008 195.229 136.176 195.667C136.197 195.704 136.222 195.739 136.249 195.772V195.862C136.369 196.208 136.431 196.572 136.433 196.938C136.433 197.104 136.417 197.269 136.386 197.432C136.34 197.682 136.258 197.924 136.144 198.152C135.986 198.468 135.777 198.755 135.526 199.004C137.639 198.69 139.724 198.304 141.78 197.847L141.883 197.824C141.919 197.681 141.95 197.535 141.975 197.389C142.134 196.496 142.107 195.58 141.897 194.698L141.912 194.682ZM129.264 199.363C128.754 198.811 128.358 198.163 128.098 197.456L123.791 199.213C123.791 199.466 123.791 199.722 123.809 199.978H124.095H124.366C126.126 199.93 127.872 199.833 129.604 199.688C129.485 199.586 129.372 199.478 129.264 199.363ZM129.264 199.363C128.754 198.811 128.358 198.163 128.098 197.456L123.791 199.213C123.791 199.466 123.791 199.722 123.809 199.978H124.095H124.366C126.126 199.93 127.872 199.833 129.604 199.688C129.485 199.586 129.372 199.478 129.264 199.363ZM129.264 199.363C128.754 198.811 128.358 198.163 128.098 197.456L123.791 199.213C123.791 199.466 123.791 199.722 123.809 199.978H124.095H124.366C126.126 199.93 127.872 199.833 129.604 199.688C129.485 199.586 129.372 199.478 129.264 199.363ZM129.264 199.363C128.754 198.811 128.358 198.163 128.098 197.456L123.791 199.213C123.791 199.466 123.791 199.722 123.809 199.978H124.095H124.366C126.126 199.93 127.872 199.833 129.604 199.688C129.485 199.586 129.372 199.478 129.264 199.363ZM129.264 199.363C128.754 198.811 128.358 198.163 128.098 197.456L123.791 199.213C123.791 199.466 123.791 199.722 123.809 199.978H124.095H124.366C126.126 199.93 127.872 199.833 129.604 199.688C129.485 199.586 129.372 199.478 129.264 199.363ZM129.264 199.363C128.754 198.811 128.358 198.163 128.098 197.456L123.791 199.213C123.791 199.466 123.791 199.722 123.809 199.978H124.095H124.366C126.126 199.93 127.872 199.833 129.604 199.688C129.485 199.586 129.372 199.478 129.264 199.363ZM129.264 199.363C128.754 198.811 128.358 198.163 128.098 197.456L123.791 199.213L122.748 199.634C122.797 199.758 122.847 199.877 122.9 199.993H123.168H123.434H123.809H124.095H124.366C126.126 199.945 127.872 199.849 129.604 199.704C129.484 199.597 129.371 199.483 129.264 199.363Z" fill="#FFA412"/>
</g>
<defs>
<clipPath id="clip0_864_16501">
<rect width="210.063" height="200" fill="white"/>
</clipPath>
</defs>
</svg>
