<svg fill="none" xmlns="http://www.w3.org/2000/svg">
<path d="M9.71005 17.3278C13.9172 17.3278 17.3278 13.9172 17.3278 9.71002C17.3278 5.50284 13.9172 2.09222 9.71005 2.09222C5.50287 2.09222 2.09229 5.50284 2.09229 9.71002C2.09229 13.9172 5.50287 17.3278 9.71005 17.3278Z" stroke="#8B8B8B" stroke-width="1.5" stroke-linecap="round" stroke-linejoin="round"/>
<path d="M16.2451 9.70996H18.4203" stroke="#8B8B8B" stroke-width="1.5" stroke-linecap="round" stroke-linejoin="round"/>
<path d="M3.17516 9.70996H1" stroke="#8B8B8B" stroke-width="1.5" stroke-linecap="round" stroke-linejoin="round"/>
<path d="M9.70996 3.17516V1" stroke="#8B8B8B" stroke-width="1.5" stroke-linecap="round" stroke-linejoin="round"/>
<path d="M9.70996 16.2448V18.42" stroke="#8B8B8B" stroke-width="1.5" stroke-linecap="round" stroke-linejoin="round"/>
<path d="M9.70983 11.8851C10.9111 11.8851 11.885 10.9113 11.885 9.70995C11.885 8.50864 10.9111 7.53479 9.70983 7.53479C8.50852 7.53479 7.53467 8.50864 7.53467 9.70995C7.53467 10.9113 8.50852 11.8851 9.70983 11.8851Z" stroke="#8B8B8B" stroke-width="1.5" stroke-linecap="round" stroke-linejoin="round"/>
</svg>
