<svg fill="none" xmlns="http://www.w3.org/2000/svg">
 <path d="M21.8685 9.64828C21.8685 10.8314 21.4198 12.0247 20.512 12.9324L19.0026 14.4419L12.5057 20.9388C12.4751 20.9694 12.4649 20.9796 12.4343 21C12.4037 20.9796 12.3935 20.9694 12.3629 20.9388L4.3565 12.9324C3.44877 12.0247 3 10.8416 3 9.64828C3 8.45498 3.44877 7.26167 4.3565 6.35394C6.17195 4.54869 9.10932 4.54869 10.9248 6.35394L12.4241 7.86342L13.9335 6.35394C15.749 4.54869 18.6762 4.54869 20.4916 6.35394C21.4198 7.26167 21.8685 8.44478 21.8685 9.64828Z" stroke="#33383F" stroke-width="1.5" stroke-linecap="round" stroke-linejoin="round"/>
</svg>
