<svg width="20" height="20" viewBox="0 0 20 20" fill="none" xmlns="http://www.w3.org/2000/svg">
<path d="M18.4376 6.06247C18.1269 6.06247 17.8751 5.81061 17.8751 5.49997V2.61718C17.8751 2.34577 17.6543 2.12499 17.3829 2.12499H14.5C14.1893 2.12499 13.9375 1.87314 13.9375 1.5625C13.9375 1.25186 14.1893 1 14.5 1H17.3829C18.2746 1 19.0002 1.72548 19.0002 2.61718V5.49997C19.0002 5.81061 18.7483 6.06247 18.4376 6.06247Z" fill="#8B8B8B"/>
<path d="M1.56252 6.06247C1.25183 6.06247 1 5.81061 1 5.49997V2.61718C1 1.72548 1.72551 1 2.61724 1H5.50013C5.81082 1 6.06265 1.25186 6.06265 1.5625C6.06265 1.87314 5.81082 2.12499 5.50013 2.12499H2.61724C2.34582 2.12499 2.12503 2.34577 2.12503 2.61718V5.49997C2.12503 5.81061 1.8732 6.06247 1.56252 6.06247Z" fill="#8B8B8B"/>
<path d="M5.50013 19H2.61724C1.72551 19 1 18.2745 1 17.3828V14.5C1 14.1894 1.25183 13.9375 1.56252 13.9375C1.8732 13.9375 2.12503 14.1894 2.12503 14.5V17.3828C2.12503 17.6542 2.34582 17.875 2.61724 17.875H5.50013C5.81082 17.875 6.06265 18.1268 6.06265 18.4375C6.06265 18.7481 5.81082 19 5.50013 19Z" fill="#8B8B8B"/>
<path d="M17.3829 19H14.5C14.1893 19 13.9375 18.7481 13.9375 18.4375C13.9375 18.1268 14.1893 17.875 14.5 17.875H17.3829C17.6543 17.875 17.8751 17.6542 17.8751 17.3828V14.5C17.8751 14.1894 18.1269 13.9375 18.4376 13.9375C18.7483 13.9375 19.0002 14.1894 19.0002 14.5V17.3828C19.0002 18.2745 18.2746 19 17.3829 19Z" fill="#8B8B8B"/>
<path d="M7.82191 9.43722H4.8687C3.97697 9.43722 3.25146 8.71174 3.25146 7.82004V4.86693C3.25146 3.97524 3.97697 3.24976 4.8687 3.24976H7.82191C8.71364 3.24976 9.43915 3.97524 9.43915 4.86693V7.82004C9.43915 8.71174 8.71364 9.43722 7.82191 9.43722ZM4.8687 4.37475C4.59729 4.37475 4.3765 4.59553 4.3765 4.86693V7.82004C4.3765 8.09144 4.59729 8.31222 4.8687 8.31222H7.82191C8.09333 8.31222 8.31412 8.09144 8.31412 7.82004V4.86693C8.31412 4.59553 8.09333 4.37475 7.82191 4.37475H4.8687Z" fill="#8B8B8B"/>
<path d="M7.82191 16.7502H4.8687C3.97697 16.7502 3.25146 16.0247 3.25146 15.133V12.1799C3.25146 11.2882 3.97697 10.5627 4.8687 10.5627H7.82191C8.71364 10.5627 9.43915 11.2882 9.43915 12.1799V15.133C9.43915 16.0247 8.71364 16.7502 7.82191 16.7502ZM4.8687 11.6877C4.59729 11.6877 4.3765 11.9085 4.3765 12.1799V15.133C4.3765 15.4044 4.59729 15.6252 4.8687 15.6252H7.82191C8.09333 15.6252 8.31412 15.4044 8.31412 15.133V12.1799C8.31412 11.9085 8.09333 11.6877 7.82191 11.6877H4.8687Z" fill="#8B8B8B"/>
<path d="M15.1325 9.43722H12.1792C11.2875 9.43722 10.562 8.71174 10.562 7.82004V4.86693C10.562 3.97524 11.2875 3.24976 12.1792 3.24976H15.1325C16.0242 3.24976 16.7497 3.97524 16.7497 4.86693V7.82004C16.7497 8.71174 16.0242 9.43722 15.1325 9.43722ZM12.1792 4.37475C11.9078 4.37475 11.687 4.59553 11.687 4.86693V7.82004C11.687 8.09144 11.9078 8.31222 12.1792 8.31222H15.1325C15.4039 8.31222 15.6247 8.09144 15.6247 7.82004V4.86693C15.6247 4.59553 15.4039 4.37475 15.1325 4.37475H12.1792Z" fill="#8B8B8B"/>
<path d="M15.8356 13.3752H14.4996V11.4768C14.4996 10.9728 14.0896 10.5627 13.5855 10.5627H11.4761C10.9721 10.5627 10.562 10.9728 10.562 11.4768V13.5862C10.562 14.0902 10.9721 14.5002 11.4761 14.5002H13.3746V15.8361C13.3746 16.3401 13.7846 16.7502 14.2887 16.7502H15.8356C16.3397 16.7502 16.7497 16.3401 16.7497 15.8361V14.2893C16.7497 13.7853 16.3397 13.3752 15.8356 13.3752ZM11.687 11.6877H13.3746V13.3752H11.687V11.6877ZM15.6247 15.6252H14.4996V14.5002H15.6247V15.6252Z" fill="#8B8B8B"/>
<path d="M6.62503 7.187H6.06252C5.75183 7.187 5.5 6.93514 5.5 6.6245V6.06201C5.5 5.75137 5.75183 5.49951 6.06252 5.49951H6.62503C6.93572 5.49951 7.18755 5.75137 7.18755 6.06201V6.6245C7.18755 6.93514 6.93572 7.187 6.62503 7.187Z" fill="#8B8B8B"/>
<path d="M13.938 7.187H13.3755C13.0648 7.187 12.813 6.93514 12.813 6.6245V6.06201C12.813 5.75137 13.0648 5.49951 13.3755 5.49951H13.938C14.2487 5.49951 14.5005 5.75137 14.5005 6.06201V6.6245C14.5005 6.93514 14.2487 7.187 13.938 7.187Z" fill="#8B8B8B"/>
<path d="M6.62503 14.5001H6.06252C5.75183 14.5001 5.5 14.2483 5.5 13.9376V13.3751C5.5 13.0645 5.75183 12.8126 6.06252 12.8126H6.62503C6.93572 12.8126 7.18755 13.0645 7.18755 13.3751V13.9376C7.18755 14.2483 6.93572 14.5001 6.62503 14.5001Z" fill="#8B8B8B"/>
</svg>
